<svg width="948" height="856" viewBox="0 0 948 856" fill="none" xmlns="http://www.w3.org/2000/svg">
<path fill-rule="evenodd" clip-rule="evenodd" d="M917.981 762.627L917.976 762.59C917.535 759.352 912.861 716.757 906.691 701.259C900.419 685.506 878.818 672.122 877.245 671.407C850.871 659.434 824.34 655.154 809.634 650.563C805.189 649.175 801.694 647.705 799.323 646.118C796.945 644.525 795.473 642.713 794.748 640.81C791.122 631.289 783.896 567.448 783.432 560.441C783.042 554.555 785.492 550.333 789.974 545.525C794.977 540.156 802.962 533.659 810.385 519.777C855.727 434.982 841.621 377.255 832.739 342.099C830.339 332.599 828.333 324.663 827.815 318.219C827.409 313.179 827.912 308.926 829.492 305.41C833.219 297.118 831.106 286.17 825.449 276.318C816.775 261.211 799.407 248.416 778.744 251.69C771.115 252.899 766.041 251.684 762.612 249.341C759.034 246.895 756.938 242.997 756.104 237.892C754.892 230.471 756.423 219.947 756.042 209.365C753.758 145.893 754.68 145.859 753.644 140.423C752.145 132.555 745.385 128.358 737.93 125.904C725.12 121.686 709.864 122.537 707.851 122.768C679.759 125.999 679.96 126.033 651.844 124.539C649.144 124.395 619.32 125.309 599.473 127.197C594.513 127.669 590.192 128.197 587.127 128.797C586.008 129.016 584.579 129.439 584.388 129.496C577.427 133.812 574.552 141.08 573.35 148.302C571.272 160.786 574.222 173.439 574.283 175.354C575.351 208.979 574.099 208.872 576.518 242.496C576.999 249.191 572.502 253.652 564.726 256.016C558.323 257.963 549.381 258.437 541.188 258.505C534.014 258.564 527.502 258.261 524.551 258.827C511.069 261.409 505.709 269.631 502.58 278.179C500.133 284.864 498.913 291.781 496.956 297.161C495.699 300.617 494.968 312.277 495.6 328.852C497.135 369.032 507.359 437.068 542.421 489.68C555.197 508.852 564.278 517.016 571.417 524.071C579.195 531.759 584.873 538.227 590.361 554.259C599.257 580.241 607.724 641.213 605.923 652.404L605.013 654.954C604.478 655.898 603.704 656.83 602.674 657.709C600.949 659.179 598.319 660.582 595.126 661.775C584.968 665.57 568.416 667.679 566.251 667.95C546.586 670.407 534.338 676.413 527.081 685.062C519.823 693.713 517.615 704.811 517.397 716.859C517.081 734.292 520.992 753.652 522.175 771.345C522.455 775.533 522.865 778.609 522.743 780.984C522.614 783.497 521.963 785.482 520.703 787.2C518.98 789.55 515.82 791.6 509.459 793.314C502.668 795.144 486.824 803.622 479.024 814.595C474.544 820.897 472.958 828.167 479.034 835.357C492.267 851.017 509.886 854.275 525.126 854.876C536.353 855.318 546.449 854.409 553.252 855.182C558.156 855.739 590.869 859.65 613.719 843.595C616.563 841.597 618.026 837.468 619.178 832.356C621.313 822.883 621.506 810.237 621.198 797.887C620.825 782.906 619.693 768.342 620.02 759.92C620.138 756.858 620.483 754.474 620.996 752.939L621.766 751.219L622.72 749.947C628.394 743.966 637.79 741.817 649.727 739.499C664.803 736.572 684.372 732.591 703.898 713.599C706.752 710.824 709.097 709.657 711.005 709.258L712.755 709.059L714.496 709.194L716.348 709.713C717.055 709.988 717.772 710.36 718.504 710.837C720.227 711.959 722.194 713.971 725.189 716.279C740.108 727.779 748.672 728.93 758.79 729.187C766.489 729.382 774.952 729.202 786.833 731.841C797.358 734.179 803.814 740.377 808.021 749.702C813.4 761.623 814.846 779.256 818.17 799.738C820.533 814.304 830.608 825.246 844.997 832.245C867.844 843.357 901.239 844.701 933.832 834.967C943.621 832.043 947.533 822.834 947.249 813.618C946.953 804.029 942.17 794.053 933.206 790.076C928.152 787.833 925.052 785.839 923.041 783.813C920.738 781.49 919.614 779.059 919.057 776.005C918.478 772.833 918.669 768.733 917.981 762.627ZM790.686 310.978C772.678 309.75 764.284 304.392 761.267 298.87C757.351 291.703 761.253 282.665 768.849 276.21C772.921 272.75 777.9 270.068 782.575 268.836C786.313 267.851 789.905 267.784 792.931 268.652C796.796 269.761 804.72 275.924 809.287 283.329C812.62 288.734 814.064 294.669 812.236 299.575C810.294 304.785 804.653 309.68 791.651 310.963C791.33 310.995 791.008 311 790.686 310.978L790.686 310.978ZM678.148 313.577C689.836 312.973 698.011 312.144 703.843 312.479C709.05 312.778 712.787 313.994 715.673 316.29C719.21 319.105 721.907 320.568 724.209 322.03C727.166 323.907 729.61 325.784 732.173 329.333C745.75 348.135 748.935 346.967 752.789 369.308C753.262 372.053 754.956 374.033 756.927 375.741C759.618 378.074 762.838 379.949 765.543 381.927C769.377 384.731 772.258 387.827 773.233 391.633C774.198 395.398 773.497 400.154 768.786 406.398C757.106 421.88 755.607 421.642 753.426 440.387C749.771 471.811 718.458 489.186 689.73 494.263C678.305 496.282 667.351 496.356 658.843 494.744C652.397 493.522 647.257 491.28 643.945 488.358C616.991 464.581 611.728 449.377 607.367 438.208C604.957 432.037 603.043 427.251 596.231 422.915C594.848 422.035 593.151 421.666 591.405 421.372C588.916 420.954 586.312 420.757 583.883 420.381C578.624 419.566 574.138 417.827 571.418 413.931C569.037 410.52 567.817 404.94 570.125 395.447C571.688 389.019 574.692 385.331 578.218 383.087C581.695 380.874 585.863 380.054 590.353 379.887C593.47 379.771 596.759 379.966 599.962 379.893C603.137 379.821 606.264 379.599 608.693 377.638C610.338 376.311 611.578 374.239 612.507 371.205C618.987 350.022 614.087 348.093 628.688 330.632C633.875 324.429 637.977 320.702 641.86 318.38C646.798 315.427 651.472 314.539 657.666 314.282C662.75 314.07 669.054 314.294 677.988 313.586L678.147 313.576L678.148 313.577ZM567.093 792.028C564.779 791.606 560.792 791.758 548.384 788.607C545.376 787.843 542.485 784.885 541.09 780.234C539.171 773.838 539.264 763.825 539.178 762.368C537.301 730.529 532.102 730.868 535.219 711.067C538.814 688.234 557.124 684.697 578.008 682.112C594.723 680.042 613.334 678.679 622.477 660.945C624.744 656.548 626.952 654.498 629.181 653.377C630.926 652.499 632.8 652.113 635.069 652.052C637.234 651.994 639.987 652.313 643.904 652.039C686.722 649.037 742.715 643.718 765.802 645.807C770.739 646.253 774.41 647.115 776.582 648.185L778.939 649.761L780.322 651.459C786.42 661.907 792.473 664.256 800.223 665.703C804.193 666.444 808.524 667.005 813.37 668.068C855.712 677.351 875.294 687.244 885.474 701.05C895.55 714.715 896.402 732.652 900.075 759.205C900.896 765.137 902.227 769.662 901.949 772.613C901.898 773.156 901.809 773.668 901.684 774.149L901.081 775.773L900.029 777.37L898.549 778.734C896.638 780.114 893.362 781.141 887.752 780.766C862.009 779.043 849.251 780.185 842.723 779.433C839.184 779.025 836.86 778.059 835.166 776.673C833.396 775.223 832.155 773.212 831.463 770.134C826.529 748.18 822.151 734.29 812.855 725.755C803.748 717.393 790.022 714.576 767.252 713.58C742.153 712.482 734.232 703.807 727.74 696.907C724.807 693.79 722.53 690.876 717.339 690.619C698.628 689.695 693.369 700.521 686.757 707.077C681.462 712.326 677.09 714.542 670.232 716.604C661.418 719.253 647.837 721.639 619.728 732.235C605.741 737.508 602.299 747.461 601.912 757.843C601.452 770.216 604.757 783.22 603.433 792.014L603.113 793.342L602.472 794.716L601.445 796.015L600.099 797.057L597.767 797.987L594.731 798.219C590.461 797.985 582.33 794.351 572.64 792.706C570.829 792.399 568.973 792.348 567.162 792.04L567.094 792.028L567.093 792.028ZM559.415 839.884C541.396 837.269 519.499 839.021 508.168 836.166C500.394 834.207 496.475 830.227 496.74 824.366C496.88 821.268 498.338 818.381 501.118 815.86C504.197 813.069 509.168 810.656 515.486 808.954C537.395 803.05 576.479 805.214 596.738 819.168L597.965 820.241L598.836 821.391L599.919 824.083L600.099 825.649L599.965 827.328C599.769 828.414 599.348 829.568 598.59 830.737C597.261 832.782 594.727 835.102 589.801 836.865C584.339 838.82 575.176 840.297 560.11 839.942C559.877 839.936 559.644 839.917 559.414 839.884L559.415 839.884ZM538.552 316.454C543.956 317.948 547.121 319.818 549.125 322.102C551.242 324.515 552.243 327.529 552.473 331.792C552.792 337.715 551.652 346.917 553.83 362.214C555.181 371.708 558.726 371.847 553.256 390.904C547.963 409.346 553.697 433.606 576.959 436.603C581.462 437.184 584.434 438.128 586.235 439.117L587.714 440.09L589.06 441.423L589.793 442.552L590.295 443.841L590.504 445.196L590.423 446.502L589.901 448.212L589.109 449.599C588.089 451.056 586.236 452.683 583.687 454.216C575.926 458.884 560.786 463.497 553.815 464.122C551.87 464.297 550.327 464.172 549.312 463.921L547.734 463.343L546.504 462.532C545.469 461.655 543.537 458.681 541.531 454.013C535.217 439.319 524.264 405.056 520.486 385.619C512.766 345.894 510.437 328.823 511.034 321.444C511.362 317.407 512.625 315.251 513.924 313.954L515.288 312.859L516.771 312.099C517.866 311.663 519.096 311.433 520.454 311.341L522.078 311.404L523.519 311.774C524.518 312.134 526.523 313.448 538.415 316.418L538.552 316.454L538.552 316.454ZM879.29 825.45C875.858 824.925 851.16 820.829 840.254 807.866L838.916 805.66L838.499 803.672L838.726 801.848L839.488 800.211C840.56 798.584 843.333 796.741 847.993 795.987C862.134 793.702 900.898 797.797 917.119 802.161C920.546 803.083 923.104 804.089 924.56 804.983L926.283 806.334L927.422 807.924C927.672 808.429 927.902 808.997 928.069 809.61L928.327 811.117L928.288 812.574L927.919 814.126L926.52 816.592C925.983 817.255 925.282 817.938 924.348 818.609C922.451 819.975 919.274 821.459 913.946 822.635C907.329 824.094 896.813 825.247 880.261 825.516C879.936 825.521 879.61 825.499 879.29 825.45L879.29 825.45ZM598.115 355.197C597.571 356.285 594.097 362.681 587.238 364.417C584.2 365.186 580.467 365.174 576.009 363.266L574.74 362.54L573.576 361.439C572.959 360.7 572.268 359.486 571.719 357.822C569.822 352.068 568.651 338.295 569.755 329.274C570.277 325.017 571.47 321.676 572.868 319.951L573.969 318.829L575.529 317.818L576.844 317.329L578.295 317.089C590.106 316.31 589.844 315.761 601.779 314.625C604.567 314.36 606.425 314.434 607.549 314.654L609.333 315.216L610.73 316.079L611.679 317.057L612.378 318.276L612.744 319.777L612.6 321.58C612.316 322.732 611.142 324.607 609.171 326.936C606.492 330.1 602.027 335.135 600.602 342.39C600.421 343.313 600.449 343.247 598.53 353.952C598.453 354.382 598.313 354.801 598.115 355.198L598.115 355.197ZM528.313 294.566C521.138 289.271 520.099 284.569 520.989 281.63C521.947 278.468 525.755 275.529 532.034 274.381C540.489 272.835 554.097 273.711 562.887 275.58C567.587 276.58 571.066 278.061 572.58 279.338C577.08 283.134 578.6 286.971 578.481 290.205C578.347 293.855 576.199 297.193 572.131 299.587C563.831 304.473 545.361 305.217 528.657 294.799C528.539 294.726 528.424 294.648 528.313 294.566ZM749.609 326.605C749.584 325.3 749.316 324.287 749.28 323.56L749.374 321.99L749.861 320.515L751.167 318.792L752.968 317.649L754.915 317.112C755.525 317.022 756.293 316.975 757.256 317.014L759.597 317.594C760.259 317.894 761.745 318.717 762.982 319.709C763.5 320.125 763.976 320.569 764.37 321.01L765.322 322.314L766.091 324.612L765.979 326.408L765.174 328.212L764.167 329.338L762.54 330.389C761.313 330.968 758.93 331.57 754.7 331.399C751.888 331.286 749.657 329.185 749.609 326.605V326.605ZM686.436 633.409C656.144 634.035 641.067 636.947 633.489 636.063C630.206 635.68 627.855 634.698 626.066 633.228C623.679 631.266 622.113 628.179 621.524 623.08C610.651 528.824 597.676 529.844 567.564 495.294C563.873 491.058 562.778 487.8 562.892 485.41L563.284 483.319L564.215 481.427C565.102 480.093 566.481 478.862 568.418 477.79C571.316 476.187 575.972 474.821 581.522 472.795C586.866 470.844 589.674 468.996 591.679 468.157C592.897 467.647 593.984 467.369 595.002 467.271L597.875 467.457C599.433 467.82 601.162 468.673 603.181 470.625C610.688 477.882 616.846 485.888 623.895 493.014C630.358 499.547 637.598 505.325 647.759 508.741C661.762 513.449 681.043 513.675 710.67 506.231C724.249 502.819 736.135 492.599 744.848 487.987C750.591 484.947 755.579 484.211 759.281 485.731C776.674 492.87 785.254 497.173 789.463 500.011C793.435 502.688 794.6 504.81 795.085 506.381L795.408 508.268C795.433 508.886 795.377 509.476 795.298 510.07C794.594 515.424 793.478 517.741 789.462 521.868C786.353 525.063 781.003 529.661 771.493 539.416C767.218 543.802 766.182 551.536 766.133 560.317C766.048 575.38 769.638 593.382 771.457 606.197C772.483 613.419 772.866 619.185 772.153 622.337C771.969 623.152 771.719 623.858 771.431 624.458L770.483 625.962L769.199 627.192L767.416 628.15C765.784 628.748 759.953 629.254 751.705 629.503C734.876 630.012 706.632 630.297 687.213 633.34C686.956 633.38 686.697 633.404 686.436 633.409ZM607.19 142.815C647.035 140.073 653.88 140.679 657.925 141.015C659.013 141.105 664.85 143.882 701.379 139.928C710.194 138.974 716.991 137.562 721.902 137.622C726.986 137.685 730.627 139.113 733.186 142.199C735.36 144.818 736.81 149.154 736.816 156.275C736.86 208.049 739.679 226.387 738.187 232.63C738.022 233.321 737.818 233.924 737.586 234.453L736.494 236.282L735.406 237.404L734.086 238.305C732.581 239.126 730.606 239.55 727.924 239.469C668.917 237.689 657.197 241.041 651.647 241.929C649.529 242.268 647.998 242.323 646.077 242.002C625.675 238.595 625.711 240.213 604.901 240.053C601.787 240.03 599.357 239.194 597.394 237.682C595.052 235.878 593.237 232.796 592.383 227.809C590.897 219.124 591.85 202.835 591.626 175.549C591.569 168.552 590.135 163.063 589.686 158.895C589.159 154.001 590.003 150.38 592.696 147.693C595.047 145.348 599.294 143.45 607.122 142.82L607.19 142.815ZM691.706 296.745C684.772 297.208 661.21 298.756 607.51 298.49C604.68 298.475 602.71 297.805 601.134 296.732C599.667 295.734 598.47 294.296 597.5 292.141C595.947 288.692 594.801 282.251 589.203 271.588C588.966 271.136 587.823 268.881 587.651 266.403C587.61 265.797 587.62 265.179 587.696 264.565L588.216 262.495L588.945 261.064L590.021 259.708C591.646 258.038 594.431 256.441 599.477 256.327C626.793 255.704 637.75 257.357 645.558 258.144C650.126 258.604 653.468 258.74 659.016 257.707C665.08 256.579 690.116 251.882 736.334 255.832C742.307 256.343 745.526 258.553 747.294 261.056C749.112 263.628 749.502 266.874 748.799 270.235C747.916 274.46 745.047 278.903 744.619 280.365C744.237 281.672 743.737 286.337 741.669 289.923C739.555 293.59 736.136 296.296 730.935 296.403C727.789 296.469 727.813 296.275 691.706 296.745L691.706 296.745ZM771.119 441.727L771.119 441.722C771.325 438.862 771.035 429.617 776.977 422.864C778.486 421.151 785.947 412.715 789.423 401.847C791.589 395.076 792.213 387.296 788.353 379.71C782.945 369.079 783.014 364.476 783.514 358.285C783.795 354.807 784.275 350.73 783.703 344.144C782.971 335.706 784.633 330.821 787.759 328.283C790.888 325.742 796.368 324.833 805.356 326.509L806.809 326.934L807.997 327.537L809.359 328.578C809.701 328.894 810.047 329.261 810.39 329.681C812.072 331.741 813.9 335.682 815.498 341.107C823.483 368.213 828.651 436.201 816.021 463.159C809.592 476.881 809.295 479.889 808.791 481.113L808.057 482.452L807.003 483.62L805.514 484.619L803.366 485.307C801.898 485.559 799.731 485.441 797.142 484.747C789.612 482.729 776.13 475.521 770.865 472.488C768.784 471.29 767.639 470.343 767.523 470.217L766.153 468.123L765.789 466.887L765.681 465.216C765.77 463.113 767.24 458.047 771.12 441.727H771.119Z" fill="#010101"/>
<path fill-rule="evenodd" clip-rule="evenodd" d="M124.506 447.083V447.091C127.261 468.198 134.847 478.919 134.921 497.649C134.924 498.585 133.506 510.426 135.679 522.52C136.978 529.748 139.469 537.168 144.901 541.771C146.829 543.405 150.441 545.062 152.141 546.682L153.534 548.358L154.291 550.038L154.513 551.838L154.12 553.726C153.472 555.385 151.262 557.991 144.811 559.648C136.542 561.773 129.113 567.306 122.368 570.297C115.983 573.13 110.022 573.938 104.536 571.24C101.486 569.74 83.0048 558.675 60.4491 554.157C46.1199 551.287 30.0622 551.038 15.5243 558.183C13.455 559.2 9.81967 563.165 6.50232 568.398C1.64519 576.06 -2.40215 586.629 1.6771 596.356C4.39586 602.839 10.773 608.741 22.4285 613.301C23.4697 613.709 25.5148 615.011 27.8395 616.621C30.1744 618.239 32.9449 620.305 34.9276 620.927C55.3983 627.35 57.6515 628.024 71.5648 640.441C72.4306 641.213 75.6524 642.789 80.2011 644.96C92.2979 650.734 113.077 659.499 129.737 664.955C138.959 667.974 146.706 670.176 150.478 669.647C169.849 666.93 175.415 657.71 178.997 653.171C180.703 651.008 182.358 649.597 183.942 648.921L185.433 648.443L187.097 648.25L188.755 648.39L190.257 648.802C192.777 649.729 195.841 651.754 199.261 654.131C203.239 656.895 207.869 660.238 213.053 661.637C225.652 665.038 237.421 669.956 249.575 674.007C266.7 679.714 284.638 683.66 307.285 678.029C314.404 676.259 319.877 674.896 323.936 673.216C326.821 672.021 328.85 670.777 329.915 668.696C331.702 665.206 331.277 660.19 329.922 652.238C329.643 650.605 329.9 648.609 330.946 646.353C332.445 643.12 335.888 638.858 340.602 634.019C354.44 619.816 379.957 599.469 389.239 583.682C395.68 572.726 399.68 558.109 402.721 549.512C403.799 546.464 404.811 544.07 405.719 542.606C406.105 541.983 406.496 541.472 406.87 541.064L408.125 539.964C413.747 536.073 417.095 534.175 418.702 531.452C420.211 528.898 419.865 525.723 419.291 519.678C418.703 513.484 422.114 510.419 427.934 507.851C431.541 506.259 436.571 504.903 440.477 500.62C444.426 496.289 446.997 489.076 446.528 476.238C446.477 474.83 446.848 472.852 447.408 470.395C448.345 466.284 449.787 460.265 448 452.985C447.253 449.942 449.699 434.137 414.159 400.843C409.37 396.356 406.02 394.967 402.478 393.288C399.541 391.896 396.494 390.347 392.708 387.431C379.599 377.332 379.192 377.825 362.661 373.986L359.696 372.855L358.328 371.896L357.182 370.701C356.151 369.381 355.486 367.683 355.337 365.477C354.982 360.222 358.609 349.804 357.773 332.007C357.208 319.984 356.809 296.548 349.684 273.957C345.109 259.451 337.764 245.257 325.527 234.966C324.491 234.096 324.332 234.326 301.076 222.816C285.87 215.291 270.71 218.858 267.13 220.874C262.635 223.405 255.638 224.989 247.726 227.2C231.884 231.626 211.935 239.445 206.049 270.062C204.976 275.645 205.734 280.913 205.725 286.124C205.714 292.51 204.743 298.806 199.965 305.377C197.969 308.124 193.067 318.569 191.801 329.352C191.03 335.924 191.5 342.695 195.591 347.585C205.812 359.803 214.424 358.542 223.072 359.028C230.804 359.462 238.604 360.847 247.235 369.014C252.367 373.872 255.983 375.619 257.368 377.246L258.493 378.987L259.069 381.268L258.711 383.868C258.436 384.694 257.957 385.655 257.176 386.783C256.121 388.306 254.366 389.605 251.836 390.779C246.427 393.289 235.722 396.277 227.719 415.455C224.441 423.312 223.574 426.925 222.524 428.844L221.438 430.443L219.84 431.909C218.945 432.543 217.86 433.064 216.344 433.521C215.748 433.7 214.415 433.909 212.433 433.834C208.26 433.677 198.715 432.571 187.504 431.384C175.247 430.086 160.941 428.695 149.71 428.454C143.091 428.312 137.663 428.435 134.804 429.513C131.244 430.857 129.046 433.571 127.572 436.341C125.244 440.717 124.666 445.391 124.506 447.084L124.506 447.083ZM309.052 400.312C316.52 400.183 320.595 396.98 324.428 394.385C328.32 391.749 332.087 389.595 336.953 389.141C346.458 388.255 346.27 390.124 355.694 389.826C365.574 389.513 372.014 392.512 377.513 396.388C381.932 399.504 385.558 403.357 390.501 405.846C409.538 415.437 425.502 436.005 428.238 446.263C429.234 449.998 428.625 452.906 427.351 454.704L425.758 456.337L423.685 457.45L421.086 457.982C420.06 458.049 418.86 457.974 417.486 457.678C400.191 453.949 395.886 456.425 384.744 456.352L383.376 456.214L381.835 455.756C381.066 455.449 380.148 454.954 379.132 454.25C375.001 451.389 367.682 443.64 359.499 437.26C355.066 433.804 350.399 430.721 345.854 429.534C342.63 428.692 339.521 429.07 336.906 431.726C335.572 433.08 334.795 434.292 334.652 435.498C334.44 437.285 335.607 438.812 336.958 440.307C339.351 442.956 342.67 445.313 345.439 447.48C347.984 449.472 350.133 451.379 351.367 453.114C351.734 453.63 352.039 454.141 352.282 454.643L352.932 456.509L353.092 457.951L352.932 459.48L352.375 461.068L351.492 462.467C350.721 463.448 349.568 464.461 347.851 465.392C333.428 473.212 334.204 481.214 333.397 486.098C332.659 490.559 330.886 493.528 326.183 495.046C317.422 497.874 312.305 497.033 309.089 494.775C306.949 493.272 305.352 490.952 304.298 487.68C303.244 484.406 302.657 479.884 301.646 474.324C301.613 474.142 301.592 473.96 301.581 473.776C301.042 464.328 300.583 458.623 299.941 454.952C299.268 451.104 298.374 450.428 296.615 448.929C294.272 446.931 289.809 445.341 284.726 443.868C271.106 439.921 253.114 437.675 250.349 437.328C249.656 437.241 249.024 437.105 248.448 436.933L246.608 436.181L244.965 435.045L243.681 433.613C242.207 431.505 241.785 428.432 242.651 425C244.098 419.27 249.074 412.209 250.455 410.824C257.076 404.186 268.115 400.967 279.141 399.818C292.85 398.389 306.331 399.973 308.994 400.305L309.051 400.312L309.052 400.312ZM187.168 612.391C187.937 607.039 189.485 603.848 191.346 601.946C193.695 599.547 196.688 598.53 200.722 598.679C204.217 598.809 208.943 600.069 215.252 601.134C235.449 604.544 244.147 609.111 252.49 614.705C260.118 619.819 267.381 625.954 284.455 633.05C301.084 639.962 306.701 649.023 307.354 653.96C307.492 655.006 307.458 655.956 307.306 656.794L306.893 658.253L306.125 659.699L304.455 661.421L302.177 662.562C292.147 665.659 280.831 665.104 270.573 663.055C255.914 660.127 243.519 654.24 240.934 653.01C234.288 649.847 218.655 646.25 217.474 645.718C188.78 632.796 187.524 616.907 187.15 613.52C187.109 613.144 187.115 612.766 187.169 612.391L187.168 612.391ZM205.514 546.749C191.503 544.742 178.643 542.36 169.326 537.806C158.63 532.579 152.101 524.71 152.418 511.987C153.049 486.601 148.311 470.918 145.209 461.825C143.678 457.337 142.578 454.222 142.382 452.237L142.423 450.141L142.908 448.473L143.795 447.031L145.107 445.812C146.636 444.731 149.648 443.9 154.908 444.721C171.907 447.375 197.083 447.552 205.083 449.198C238.151 456.002 249.822 451.182 273.339 456.933C274.877 457.31 276.313 457.765 277.755 458.79C279.088 459.738 280.519 461.214 281.797 464.013C284.222 469.323 286.704 481.662 289.202 511.759C289.415 514.324 291.603 540.711 291.816 546.358L291.724 548.473L291.219 549.815C290.552 551 289.884 551.857 289.235 552.484L288.187 553.344L286.866 554.075L284.869 554.639L282.195 554.62C279.864 554.274 276.068 552.175 268.037 550.173C264.174 549.21 260.09 549.289 254.261 549.357C244.429 549.471 230.165 549.748 205.636 546.766L205.514 546.75L205.514 546.749ZM136.529 650.166C106.125 638.602 92.1228 635.343 76.6134 621.689C74.1937 619.559 68.9874 617.041 62.8474 614.224C52.6148 609.531 39.9049 604.313 31.2111 599.619C26.0823 596.849 22.2552 594.097 20.4579 591.782C20.098 591.319 19.7973 590.861 19.5512 590.414L18.8608 588.773L18.6126 586.124C19.1514 581.11 21.0948 577.446 23.8139 574.763C27.7503 570.88 33.5147 569.005 39.9657 568.648C53.3926 567.905 69.9176 573.844 72.1717 574.669C95.3462 583.14 104.557 590.886 113.577 599.045C121.905 606.577 130.036 614.518 150.69 623.919C161.553 628.864 163.259 637.436 162.484 642.889C162.029 646.093 160.53 648.401 159.401 649.384C155.236 653.005 152.683 653.37 148.771 652.745C146.538 652.389 143.47 651.305 137.743 650.48C137.326 650.419 136.918 650.314 136.529 650.166L136.529 650.166ZM395.38 472.17C397.025 472.211 409.029 472.532 417.136 474.138C422.205 475.143 425.917 477.097 427.257 478.922L428.531 481.408L428.82 482.792L428.841 484.182L428.198 486.704C427.903 487.383 427.504 488.062 426.998 488.732C424.206 492.428 416.563 496.146 410.798 499.195C408.836 500.233 405.209 501.231 400.595 501.906C391.39 503.255 377.769 503.667 367.936 502.713C363.162 502.249 359.198 501.413 356.732 500.342C355.747 499.914 354.93 499.435 354.277 498.94L352.718 497.403C349.964 493.78 349.564 490.525 350.365 487.725C351.128 485.061 353.143 482.621 356.318 480.639C366.114 474.522 389.715 472.66 394.693 472.193C394.921 472.172 395.15 472.164 395.379 472.17L395.38 472.17ZM386.731 524.862C386.715 526.102 386.837 526.967 386.772 527.6L386.398 529.169L385.737 530.396L384.627 531.585L383.412 532.383L380.353 533.361C361.618 536.9 351.321 542.001 341.867 545.925C334.882 548.824 328.305 551.122 319.673 552.005L317.088 551.857L314.822 550.968L312.925 549.449C312.318 548.801 311.747 547.994 311.249 547.043C309.283 543.286 308.466 536.176 307.803 532.174C306.52 524.428 307.522 519.533 309.568 516.618C312.03 513.109 316.034 511.425 321.762 511.63C327.28 511.827 335.015 514.021 344.426 516.595C349.876 518.086 355.625 518.127 361.571 518.212C368.408 518.311 375.477 518.429 382.685 520.065C385.084 520.61 386.759 522.597 386.731 524.863V524.862ZM223.386 273.088C226.736 259.884 231.649 252.617 236.895 248.466C242.586 243.963 248.863 242.826 255.062 242.536C258.339 242.384 261.57 242.491 264.571 242.177C266.632 241.961 268.578 241.567 270.2 240.335C274.961 236.719 278.304 235.128 281.756 234.816C284.036 234.611 286.44 234.932 289.378 235.92C292.568 236.994 296.665 238.984 302.724 241.828C321.788 250.774 330.602 263.595 335.189 284.37C338.038 297.273 339.225 313.426 340.455 333.903C341.371 349.169 338.531 358.914 334.472 365.468C328.316 375.405 319.157 378.239 313.95 381.266C302.488 387.93 289.859 383.149 277.945 373.742C268.977 366.662 260.299 357.151 252.744 350.6C250.512 348.664 248.402 347.007 246.416 345.833C245.136 345.077 244.009 344.48 242.923 344.444C241.012 344.38 228.333 343.955 219.082 342.917C214.181 342.367 211.318 339.587 210.148 335.449C208.456 329.463 211.685 319.374 215.112 314.645C223.228 303.445 222.742 302.889 223.248 274.116C223.254 273.769 223.3 273.425 223.385 273.087L223.386 273.088ZM196.533 582.817L196.526 582.818C187.886 584.147 182.448 586.682 178.958 589.762C173.477 594.598 172.726 600.516 171.22 603.919C170.057 606.548 168.463 608.311 166.514 609.277L164.725 609.933L162.847 610.204C161.448 610.267 159.751 610.046 157.699 609.296C149.688 606.368 143.12 603.137 138.99 599.898C135.177 596.908 133.214 593.685 132.888 590.671C132.382 585.986 135.751 580.275 147.316 575.994C164.052 569.8 164.305 570.607 180.13 562.776C183.384 561.165 187.604 560.77 193.312 561.331C203.309 562.313 219.25 566.081 245.496 564.695C248.437 564.54 250.363 564.831 251.56 565.208L252.806 565.709L254.106 566.547L255.601 568.349L256.092 569.643L256.239 570.904L256.083 572.204L255.53 573.672C254.316 576.013 249.845 579.071 249.502 579.283C243.481 582.994 240.307 585.137 236.497 586.108C232.591 587.103 227.937 586.977 218.814 585.424C207.659 583.526 207.726 582.711 196.533 582.816L196.533 582.817ZM288.211 616.915C287.744 616.818 283.035 615.613 264.671 603.846C262.826 602.663 261.667 601.545 260.955 600.571L260.065 599.003L259.591 597.117L259.72 595.167L260.349 593.494C260.889 592.48 261.785 591.432 263.057 590.413C264.422 589.318 266.417 588.148 268.471 586.688C270.601 585.173 272.931 583.275 273.842 580.271C275.717 574.082 278.824 571.932 281.437 571.087L284.125 570.611C285.199 570.565 286.288 570.682 287.368 570.914C288.611 571.181 289.815 571.775 290.878 571.87C312.707 573.819 312.239 570.239 333.511 565.013C352.448 560.361 352.064 559.72 369.46 551.697C370.316 551.302 371.086 551.037 371.764 550.866L373.58 550.587L375.372 550.691L377.307 551.316L378.486 552.058L379.431 552.976L380.207 554.148L380.791 555.797C381.258 557.96 380.498 562.073 378.287 566.913C374.128 576.018 365.344 588.639 358.349 594.112C340.58 608.016 330.822 622.069 323.674 627.096C320.637 629.232 317.77 630.116 315.145 630.016L313.435 629.812L311.789 629.339C310.829 628.979 309.87 628.464 308.923 627.758C299.539 620.764 299.02 621.915 288.21 616.915L288.211 616.915Z" fill="#010101"/>
<path fill-rule="evenodd" clip-rule="evenodd" d="M664.436 470.114L664.446 470.119C670.582 472.326 689.44 482.223 701.766 463.451C704.871 458.722 705.682 454.571 704.498 450.984C703.293 447.333 700.17 444.401 696.185 442.06C690.023 438.442 681.798 436.302 673.722 435.74C667.729 435.322 661.806 435.774 656.872 437.255C652.768 438.487 649.348 440.374 647.639 443.325C645.216 447.508 646.509 453.244 651.95 460.987C656.407 467.329 657.327 466.474 664.436 470.114Z" fill="black"/>
<path fill-rule="evenodd" clip-rule="evenodd" d="M685.077 67.7327C684.81 70.5101 682.957 78.0908 683.826 85.0148C684.213 88.1008 685.062 91.1097 687.527 92.9642C689.075 94.1285 691.24 94.7267 694.122 94.7636C698.367 94.8178 701.388 92.2113 703.677 88.6092C706.67 83.8973 708.362 77.5065 709.02 70.9418C709.828 62.891 709.06 54.5501 706.795 48.5167C705.704 45.6104 704.517 43.2184 702.546 42.3448C693.612 38.3852 685.703 44.9006 685.414 52.998C685.241 57.8186 685.266 62.6439 685.094 67.4646C685.091 67.5542 685.085 67.6436 685.077 67.7327Z" fill="black"/>
<path fill-rule="evenodd" clip-rule="evenodd" d="M547.123 83.5471L547.115 83.5427C541.901 80.665 532.875 74.2085 523.943 71.8007C519.586 70.6261 515.221 70.4104 511.835 73.4234C509.723 75.3025 508.535 77.1102 508.273 78.9497C507.868 81.8016 509.588 84.4506 511.884 86.9595C519.722 95.5243 535.082 101.862 537.304 102.987C546.683 107.738 555.17 106.583 558.431 101.741C561.743 96.8259 558.438 89.8154 547.123 83.5468V83.5471Z" fill="black"/>
<path fill-rule="evenodd" clip-rule="evenodd" d="M609.088 90.9652L609.091 90.9684C611.653 93.2268 615.464 95.0675 619.214 95.5514C621.29 95.8192 623.367 95.688 625.026 94.6329C626.44 93.7335 627.447 92.1984 628.086 90.0206C628.982 86.9701 629.097 82.9153 628.299 77.6436C628.091 76.2642 628.201 63.7804 623.518 54.9003C621.239 50.5805 617.609 47.178 611.287 48.3447C605.065 49.4929 603.133 54.7801 602.61 60.705C601.639 71.7005 605.995 85.3902 609.088 90.9652Z" fill="#010101"/>
<path fill-rule="evenodd" clip-rule="evenodd" d="M792.689 146.683C792.929 146.768 793.371 146.92 793.697 146.998C794.785 147.261 796.085 147.442 797.495 147.578C805.099 148.311 815.496 147.642 816.999 147.548L816.869 147.558C817.218 147.535 823.516 147.93 829.842 146.316C834.623 145.096 839.749 142.678 840.081 136.751C840.246 133.812 839.569 131.602 838.116 130.013C835.643 127.308 831.46 126.342 827.234 125.883C818.392 124.924 808.987 126.683 807.31 126.856C800.435 127.564 795.613 128.848 792.355 130.609C790.066 131.846 788.735 133.255 788.221 134.827C787.362 137.448 788.477 140.201 789.657 142.396C790.645 144.233 792.17 146.076 792.689 146.683Z" fill="#010101"/>
<path fill-rule="evenodd" clip-rule="evenodd" d="M500.354 169.773C505.268 170.017 513.337 171.202 520.364 170.09C523.504 169.593 526.455 168.667 528.361 166.484C529.593 165.072 530.319 163.16 530.534 160.665C530.934 156.014 527.261 152.962 522.375 150.911C516.021 148.243 507.537 147.309 499.583 147.923C494.115 148.345 488.884 149.499 484.803 151.459C481.658 152.97 479.176 154.886 478.468 157.556C477.846 159.902 478.674 162.617 480.844 165.818C482.023 167.557 483.92 168.398 484.243 168.548C488.668 170.601 490.127 170.443 493.008 170.149C494.818 169.964 497.009 169.756 500.086 169.766C500.175 169.766 500.265 169.769 500.354 169.773L500.354 169.773Z" fill="black"/>
<path fill-rule="evenodd" clip-rule="evenodd" d="M761.453 82.5449L761.442 82.5583C755.664 89.8765 754.876 95.3776 757.704 98.9759C759.64 101.438 763.025 102.713 766.468 102.888C769.978 103.067 773.65 102.088 776.126 99.6153C781.226 94.5242 790.275 86.442 795.08 78.3347C797.237 74.6963 798.724 71.1382 797.325 68.0053C796.435 66.0122 794.35 64.3994 791.031 62.9701C786.28 60.9245 781.773 63.2682 777.401 66.5505C771.59 70.9149 766.203 77.2835 761.453 82.5443V82.5449Z" fill="black"/>
<path fill-rule="evenodd" clip-rule="evenodd" d="M842.145 195.111L842.144 195.107C841.34 192.01 840.599 189.919 839.11 188.437C837.534 186.868 835.2 186.108 831.707 185.145C827.739 184.052 822.542 182.943 815.613 181.278C806.797 179.159 800.719 179.65 796.928 182.058C793.294 184.365 792.377 188.403 793.139 192.031C793.9 195.653 796.307 199.093 800.14 200.012C813.609 203.239 823.464 205.442 830.591 205.642C834.316 205.746 837.065 205.421 838.894 203.748C840.82 201.986 841.644 199.128 842.145 195.112L842.145 195.111Z" fill="#010101"/>
<path fill-rule="evenodd" clip-rule="evenodd" d="M644.826 385.854L644.828 385.855C648.462 385.599 651.31 385.559 653.63 385.37C655.071 385.253 656.201 385.187 657.125 384.607C658.653 383.646 659.508 381.715 660.875 378.372C662.544 374.292 662.492 370.943 660.991 368.362C658.658 364.35 653.342 362.398 647.986 362.085C642.5 361.764 636.715 363.171 633.501 366.889C631.494 369.211 630.694 372.431 631.496 376.52C631.992 379.052 633.944 380.826 636.01 382.174C639.283 384.309 643.07 385.41 644.826 385.854Z" fill="#010101"/>
<path fill-rule="evenodd" clip-rule="evenodd" d="M708.4 360.495C708.031 360.311 704.676 358.66 701.549 357.936C698.302 357.185 694.334 356.781 691.104 358.783C688.163 360.607 686.129 364.243 685.191 370.394L685.192 370.397C685.511 376.106 687.096 379.885 689.825 381.967C693.988 385.143 700.122 383.815 705.037 380.985C709.711 378.294 713.58 374 713.612 369.246C713.632 366.288 711.987 363.305 708.4 360.495V360.495Z" fill="black"/>
<path fill-rule="evenodd" clip-rule="evenodd" d="M214.129 482.143C211.458 482.591 209.35 482.859 207.635 483.206C206.675 483.4 205.91 483.518 205.322 483.993C204.202 484.898 203.657 486.509 202.728 489.218C200.835 494.739 202.518 500.259 203.627 501.76C208.638 508.54 216.946 506.996 222.509 502.907C226.286 500.13 229.136 496.149 228.658 492.173C228.136 487.837 223.616 484.369 214.129 482.143Z" fill="#010101"/>
<path fill-rule="evenodd" clip-rule="evenodd" d="M266.56 313.784L266.564 313.784C277.509 311.366 280.458 303.485 279.252 297.494C278.815 295.322 277.959 293.38 276.57 292.398C264.159 283.629 251.496 296.084 254.086 305.608C255.162 309.566 259.168 312.588 266.56 313.783V313.784Z" fill="black"/>
<path fill-rule="evenodd" clip-rule="evenodd" d="M316.028 276.973L316.026 276.968C313.071 272.818 310.152 270.903 307.109 271.127C304.822 271.294 302.755 272.602 300.984 274.316C298.803 276.427 297.104 279.219 296.153 282.121C295.047 285.498 294.827 289.075 296.706 291.663C297.804 293.176 299.682 294.189 302.343 294.646C308.014 295.62 311.652 295.078 313.838 293.145C315.816 291.398 316.446 288.799 316.704 286.321C317.106 282.453 316.409 278.685 316.028 276.973H316.028Z" fill="black"/>
<path fill-rule="evenodd" clip-rule="evenodd" d="M882.557 145.369L882.562 145.368C885.054 144.784 890.966 142.978 892.722 137.803C893.829 134.541 892.303 130.358 890.917 128.841C889.026 126.771 887.049 125.483 885.021 124.933C881.204 123.897 877.487 125.593 874.817 128.135C871.989 130.828 870.157 134.594 870.896 138.05C871.665 141.648 875.39 144.282 882.557 145.369Z" fill="#090909"/>
<path fill-rule="evenodd" clip-rule="evenodd" d="M512.21 209.124L512.21 209.128C513.487 215.42 516.35 218.674 520.188 219.297C522.901 219.737 525.787 218.916 528.259 217.477C531.781 215.427 534.622 212.044 534.571 208.295C534.539 205.885 533.181 203.45 530.328 201.166C529.647 200.622 527.382 199.667 524.701 199.146C522.206 198.66 519.235 198.517 516.825 200.153C514.579 201.678 513.022 204.53 512.21 209.124L512.21 209.124Z" fill="#080808"/>
<path fill-rule="evenodd" clip-rule="evenodd" d="M468.841 68.1966H468.845C476.031 67.3605 479.797 64.8446 480.611 61.2613C481.296 58.2462 480.005 54.9331 477.841 52.3014C475.707 49.7069 472.642 47.6791 469.219 47.5564C466.33 47.4526 463.378 48.842 460.578 51.9324C459.27 53.3757 457.694 57.5519 458.819 60.8237C460.562 65.8955 466.444 67.6425 468.841 68.1966Z" fill="#090909"/>
<path fill-rule="evenodd" clip-rule="evenodd" d="M425.826 156.764L425.825 156.769C426.599 163.017 429.108 166.427 432.804 167.356C436.394 168.258 440.483 166.919 443.594 164.648C446.309 162.666 448.385 159.886 448.354 156.788C448.334 154.789 447.369 152.736 445.363 150.723C441.347 146.694 435.848 147.345 435.225 147.409C432.013 147.739 429.915 149.907 428.442 151.931C427.1 153.776 426.264 155.645 425.826 156.764Z" fill="#080808"/>
<path fill-rule="evenodd" clip-rule="evenodd" d="M847.621 46.4411L847.62 46.4367C847.276 45.4901 846.605 43.878 845.496 42.2309C844.274 40.4154 842.514 38.4161 839.763 37.7784C833.518 36.3309 829.732 39.4395 829.09 39.9846C826.934 41.8136 825.647 43.6555 825.194 45.5042C824.34 48.9876 826.568 52.1647 829.577 54.3797C832.857 56.7936 837.259 58.2179 841.039 57.2995C844.833 56.3775 847.255 52.8833 847.621 46.4411Z" fill="#080808"/>
<path fill-rule="evenodd" clip-rule="evenodd" d="M706.886 1.14257L706.882 1.14492C701.593 5.57197 699.993 9.50812 701.435 12.8124C702.819 15.9816 706.521 18.1283 710.423 18.9859C713.84 19.7367 717.563 19.5192 720.225 17.5308C721.958 16.2366 723.126 14.1978 723.593 11.4007C723.731 10.5711 724.605 5.38469 719.436 1.62671C717.118 -0.0587054 714.234 -0.135486 711.855 0.0948639C709.747 0.298837 707.937 0.802612 706.886 1.14257Z" fill="#080808"/>
<path fill-rule="evenodd" clip-rule="evenodd" d="M593.521 16.8848V16.8918C594.501 23.3779 597.137 26.7156 600.943 27.3202C604.676 27.9131 608.774 26.116 611.747 23.4717C614.301 21.1996 616.138 18.1948 615.661 15.0736C615.349 13.0307 613.99 11.051 611.513 9.20733C610.502 8.45503 608.118 7.4677 605.397 7.02839C602.956 6.63393 600.142 6.64799 597.884 8.27303C595.754 9.80665 594.281 12.5629 593.521 16.8851L593.521 16.8848Z" fill="#080808"/>
<path fill-rule="evenodd" clip-rule="evenodd" d="M857.927 216.571C859.095 222.867 861.841 226.167 865.619 226.852C868.276 227.334 871.125 226.554 873.579 225.157C877.121 223.14 879.996 219.755 880.011 215.974C880.021 213.54 878.72 211.057 875.917 208.714C871.715 205.202 866.665 206.519 865.871 206.715C862.943 207.439 861.205 207.845 860.202 208.797C859.697 209.276 859.563 209.924 859.332 210.731C858.893 212.262 858.523 214.158 857.927 216.571Z" fill="#090909"/>
<path fill-rule="evenodd" clip-rule="evenodd" d="M679.034 405.62L679.031 405.617C677.679 404.062 674.496 401.571 667.669 401.346C666.947 401.322 661.653 400.81 659.195 404.205C657.093 407.108 656.427 409.614 657.171 411.729C658.348 415.074 662.391 417.036 666.541 417.812C671.118 418.667 676.284 418.171 678.646 414.791C680.12 412.681 680.262 409.659 679.034 405.62Z" fill="#010101"/>
<path fill-rule="evenodd" clip-rule="evenodd" d="M295.467 311.866L295.461 311.868C292.468 314.184 290.548 316.34 289.601 318.385C288.955 319.777 288.85 321.036 289.314 322.118C290.414 324.69 293.75 326.151 297.23 326.672C302.793 327.504 309.351 325.52 310.721 318.778C311.123 316.802 310.025 313.57 307.729 311.939C306.229 310.874 304.254 310.718 302.423 310.747C299.551 310.792 296.864 311.461 295.466 311.866L295.467 311.866Z" fill="#010101"/>
</svg>
