<svg width="170" height="173" viewBox="0 0 170 173" fill="none" xmlns="http://www.w3.org/2000/svg">
<g clip-path="url(#clip0_24_607)">
<path d="M109.426 166.942V167.714C109.838 168.282 110.446 168.453 111.107 168.478C111.854 168.502 112.6 168.482 113.347 168.482C113.49 168.482 113.694 168.543 113.763 168.47C113.992 168.224 114.265 168.269 114.539 168.269C114.726 168.269 114.89 168.576 115.118 168.302C115.147 168.265 115.4 168.465 115.555 168.474C117.832 168.592 120.108 168.764 122.398 168.706C123.72 168.674 125.029 169.05 126.36 168.903C126.964 168.837 127.592 168.8 128.151 168.596C128.645 168.421 129.204 168.355 129.567 168.531C130.073 168.776 130.554 168.727 130.991 168.649C131.411 168.576 131.893 168.408 132.223 168.049C132.513 167.734 132.909 167.461 133.068 167.085C133.39 166.333 133.884 165.639 133.958 164.785C133.99 164.421 134.096 164.062 134.162 163.698C134.235 163.302 134.333 162.906 134.37 162.505C134.406 162.117 134.378 161.725 134.378 161.333C134.378 160.798 134.243 160.217 134.415 159.744C134.602 159.221 134.415 158.653 134.627 158.236C134.872 157.758 134.598 157.186 135.018 156.794C134.876 156.055 135.239 155.368 135.235 154.641C135.227 153.469 135.21 152.292 135.243 151.12C135.255 150.683 135.104 150.245 135.406 149.796C135.639 149.449 135.288 148.934 135.626 148.497C135.781 148.297 135.626 147.876 135.667 147.562C135.72 147.161 135.463 146.708 135.867 146.36C135.904 146.332 135.879 146.222 135.867 146.152C135.798 145.682 135.728 145.213 135.655 144.747C135.586 144.31 135.712 143.881 135.516 143.415C135.296 142.904 135.333 142.283 135.227 141.72C135.116 141.148 135.39 140.641 135.463 140.102C135.565 139.326 136.504 138.599 137.283 138.582C137.634 138.574 137.989 138.582 138.315 138.611C139.168 138.844 139.454 139.587 139.686 140.261C140.103 141.454 140.384 142.692 140.576 143.954C140.813 145.503 141.164 147.035 141.641 148.526C141.91 149.367 142.371 150.156 142.608 151.001C143.09 152.721 144.004 154.273 144.448 156.006C144.579 156.52 144.697 157.043 144.844 157.55C145.154 158.62 144.983 159.699 145.044 160.773C145.101 161.762 144.62 162.505 143.902 163.065C143.253 163.571 142.494 163.943 141.706 164.18C140.376 164.585 139.132 165.173 137.867 165.728C137.226 166.01 136.765 166.505 136.508 167.17C136.459 167.293 136.385 167.407 136.3 167.567V168.988C136.753 169.536 137.291 169.785 138.018 169.76C139.58 169.716 141.151 169.842 142.706 169.716C144.012 169.609 145.346 169.593 146.619 169.152C147.154 168.968 147.758 168.98 148.325 168.89C148.688 168.833 149.047 168.723 149.41 168.686C149.798 168.649 150.194 168.698 150.581 168.666C150.732 168.653 150.875 168.527 151.034 168.441C151.263 168.825 151.593 168.559 151.867 168.559C152.332 168.564 152.777 168.76 153.25 168.678C153.752 168.592 154.258 168.535 154.76 168.461C155.229 168.392 155.702 168.351 156.163 168.241C156.641 168.122 157.122 167.975 157.563 167.759C158.122 167.489 158.567 167.072 158.914 166.533C159.403 165.769 159.603 164.895 159.942 164.074C160.105 163.678 159.938 163.159 159.979 162.697C160.105 161.304 159.595 160.025 159.297 158.706C158.861 158.391 159.391 157.779 158.922 157.476C158.848 156.831 158.714 156.185 158.71 155.54C158.701 154.318 158.538 153.101 158.432 151.896C158.293 150.397 157.775 148.934 157.216 147.508C156.841 146.557 156.335 145.629 156.355 144.555C155.976 143.942 156.151 143.264 156.155 142.614C156.155 141.52 155.796 139.939 155.176 138.746C154.617 137.671 153.988 136.613 153.723 135.4C153.601 134.844 153.393 134.317 153.356 133.733C153.311 133.03 153.209 132.328 152.981 131.654C152.928 131.494 152.952 131.307 152.944 131.135C152.915 130.15 152.617 129.219 152.373 128.275C152.12 127.311 151.907 126.335 151.659 125.367C151.393 124.337 151.136 123.308 150.887 122.274C150.708 121.531 150.52 120.779 150.398 120.023C150.328 119.59 150.079 119.202 150.153 118.724C150.218 118.287 149.806 117.895 149.953 117.425C149.545 116.232 149.48 115.002 149.537 113.74C149.557 113.703 149.606 113.65 149.622 113.589C149.957 112.515 150.883 111.996 151.789 111.702C153.156 111.26 154.086 110.423 154.862 109.287C155.723 108.021 156.367 106.121 156.596 104.659C156.665 104.226 156.669 103.768 156.8 103.364C156.93 102.959 156.882 102.534 157.012 102.171C157.269 101.452 157.037 100.692 157.232 100.018C157.506 99.0743 157.367 98.1469 157.4 97.2155C157.416 96.7825 157.567 96.3045 157.204 95.9123C157.167 95.8756 157.188 95.7734 157.204 95.704C157.445 94.2211 157.302 92.6483 158.216 91.3206C158.367 91.1 158.493 90.8549 158.673 90.6588C160.24 88.9185 161.594 87.0311 162.659 84.9436C163.112 84.0571 163.341 83.0848 163.573 82.1248C163.651 81.798 163.688 81.4017 163.427 81.0218C163.206 80.7031 163.406 80.2333 163.292 79.8085C163.161 79.3264 162.774 79.0282 162.651 78.5788C161.696 78.4481 160.966 78.8444 160.24 79.4449C159.338 80.1925 158.477 81.0054 157.543 81.6918C156.616 82.374 156.135 83.2523 155.682 84.2328C155.486 84.6576 155.123 85.0089 154.849 85.3807H153.711C152.658 84.5351 151.883 83.4198 151.238 82.2024C150.655 81.0994 149.688 80.3232 148.814 79.4817C148.549 79.2284 148.109 79.0609 147.737 79.0364C147.117 78.9955 146.636 78.7668 146.191 78.3623C146.056 78.2398 145.832 78.2112 145.575 78.109C145.199 78.5666 144.718 78.9955 144.448 79.5307C144.159 80.1067 143.783 80.6051 143.453 81.1443C142.833 82.1493 142.718 83.2237 143.232 84.3145C143.579 85.0498 143.995 85.7361 144.583 86.3203C145.301 87.0311 146.032 87.7297 146.64 88.5549C147.011 89.0533 147.272 89.5231 147.162 90.2053C146.942 90.4014 146.676 90.6302 146.305 90.9529C145.362 91.1327 144.583 90.4382 143.865 89.8254C142.853 88.9675 141.882 88.0279 141.143 86.9086C140.58 86.0548 140.103 85.1397 139.931 84.1061C139.854 83.6363 139.699 83.1951 139.707 82.7008C139.723 81.5488 140.156 80.552 140.727 79.5961C141.086 78.9996 141.478 78.4318 141.714 77.7618C142.171 76.475 141.506 74.9757 140.213 74.6979C139.617 74.5713 139.009 74.4038 138.434 74.1055C137.707 73.7256 137.157 73.215 136.769 72.5123C136.324 71.7116 135.851 70.9313 135.186 70.2859C134.521 69.6404 133.904 68.9459 133.215 68.3372C132.701 67.8838 132.529 67.271 132.183 66.6827C132.464 66.3804 132.48 65.9883 132.893 65.735C133.545 65.3305 134.076 65.6737 134.598 65.8902C135.084 66.0904 135.537 66.4254 135.928 66.7849C136.663 67.4548 137.357 68.1698 138.042 68.8928C138.471 69.3422 138.985 69.7793 139.221 70.3227C139.54 71.058 140.188 71.0784 140.743 71.299C141.417 71.5646 142.147 71.6912 142.812 71.969C143.416 72.2223 143.898 72.6798 144.159 73.3008C144.477 74.0565 144.816 74.8164 145.036 75.6048C145.171 76.095 145.395 76.475 145.787 76.8426C147.162 76.0419 148.517 75.1636 149.957 74.4569C150.708 74.0892 151.422 73.6807 152.103 73.215C152.56 72.9004 152.985 72.5042 153.323 72.067C153.531 71.7974 153.552 71.3807 153.654 71.0376C153.417 70.8292 153.234 70.6617 152.997 70.4534C152.601 70.4983 152.124 70.3594 151.671 70.6576C151.177 70.9845 150.634 71.2377 150.112 71.5196C149.323 71.9499 148.525 72.161 147.717 72.1528C147.537 71.9731 147.362 71.7974 147.186 71.6217C147.186 71.2663 147.186 70.9109 147.186 70.5555C148.219 68.9419 149.7 67.9328 151.483 67.3282C151.642 67.2751 151.818 67.2547 151.985 67.2506C152.838 67.2424 153.691 67.2261 154.543 67.2588C154.98 67.2751 155.441 67.3159 155.837 67.4794C156.584 67.7857 157.347 67.6223 158.224 67.6959C159.081 67.0872 159.999 66.4131 160.938 65.7717C161.892 65.114 162.847 64.44 164.01 64.1826C165.095 63.9416 166.16 63.6066 167.303 64.0355C168.429 64.4604 169.527 65.7105 169.817 66.8952C169.968 67.512 169.992 68.1166 170.008 68.7335C170.041 69.8324 169.511 70.7393 168.943 71.5972C168.527 72.2264 167.911 72.7248 167.462 73.3375C166.924 74.077 166.271 74.702 165.646 75.3597C165.516 75.4986 165.459 75.7069 165.324 75.9684C165.206 76.5403 165.438 77.1163 165.72 77.7169C166.058 78.4318 166.275 79.1957 166.422 79.9964C166.536 80.6174 166.577 81.222 166.589 81.8388C166.618 83.1093 166.189 84.2695 165.752 85.4379C165.128 87.1087 164.092 88.5426 163.121 89.997C162.484 90.9488 161.762 91.868 161.031 92.7627C160.729 93.1385 160.693 93.5388 160.607 93.98C160.24 95.8306 160.501 97.6976 160.403 99.5523C160.378 100.059 160.252 100.561 160.199 101.064C160.15 101.538 160.179 101.995 160.015 102.481C159.803 103.115 159.897 103.846 159.754 104.512C159.505 105.68 159.244 106.848 158.852 107.98C158.485 109.042 157.975 110.051 157.396 110.999C156.861 111.877 156.233 112.764 155.364 113.336C154.609 113.83 154.009 114.471 153.466 115.129C152.891 115.828 152.801 116.788 152.981 117.666C153.046 117.989 153.119 118.316 153.164 118.651C153.201 118.945 153.291 119.235 153.372 119.525C153.58 120.26 153.768 121.004 153.931 121.743C154.095 122.495 154.241 123.25 154.441 123.994C154.658 124.795 154.866 125.599 155.062 126.404C155.323 127.479 155.682 128.533 155.731 129.656C155.743 129.95 155.878 130.236 155.931 130.53C155.984 130.824 155.808 131.176 156.147 131.4C156.106 131.956 156.269 132.483 156.339 133.022C156.473 134.027 156.669 134.987 157.192 135.878C157.592 136.56 157.959 137.267 158.24 138.002C158.55 138.803 158.816 139.616 158.963 140.49C159.118 141.434 159.016 142.369 159.154 143.288C159.289 144.203 159.526 145.11 159.836 145.989C160.134 146.826 160.321 147.713 160.689 148.517C161.064 149.343 161.044 150.278 161.476 151.075C161.505 151.128 161.488 151.218 161.476 151.287C161.313 152.48 161.762 153.636 161.696 154.829C161.635 155.928 161.982 156.966 162.251 158.011C162.464 158.845 162.668 159.678 162.961 160.491C163.031 160.679 162.97 160.916 162.97 161.128C162.97 161.733 162.912 162.346 162.982 162.942C163.129 164.245 162.7 165.447 162.292 166.615C161.962 167.571 161.521 168.523 160.762 169.295C159.983 170.091 159.554 170.484 158.404 170.778C158.085 170.859 157.804 171.068 157.428 171.027C157.151 170.994 156.845 171.137 156.559 171.223C154.515 171.815 152.418 171.607 150.336 171.656C149.255 171.681 148.194 171.901 147.158 172.212C147.064 172.24 146.966 172.277 146.872 172.289C146.121 172.363 145.35 172.359 144.62 172.522C142.877 172.91 141.119 172.616 139.372 172.722C138.511 172.775 137.65 172.837 136.798 172.939C135.814 173.053 134.88 172.816 134.023 172.424C132.913 171.917 131.864 172.077 130.775 172.383C129.8 172.661 128.857 172.841 127.788 172.555C126.964 172.334 126.058 172.244 125.213 172.052C122.867 171.517 120.488 171.824 118.138 171.615C115.106 171.35 112.078 171.558 109.054 171.411C107.908 171.354 106.933 170.749 106.247 169.781C105.79 169.131 105.513 168.421 105.594 167.595C105.635 167.207 105.602 166.815 105.602 166.472C105.815 166.084 106.002 165.732 106.202 165.389C106.794 164.393 107.79 163.886 108.72 163.277C109.748 162.603 110.907 162.158 111.907 161.423C112.449 161.022 113.18 160.883 113.767 160.532C114.841 159.899 115.714 159.074 116.134 157.824C116.228 157.542 116.257 157.288 116.257 157.027C116.269 155.675 116.31 154.318 116.244 152.97C116.195 151.953 116.383 150.989 116.799 150.098C117.362 148.893 117.35 147.639 117.326 146.369C116.954 145.813 117.26 145.139 117.032 144.571C116.779 143.95 116.942 143.325 116.909 142.704C116.873 142.067 116.901 141.426 116.901 140.784C116.901 140.143 116.889 139.501 116.905 138.864C116.918 138.345 116.852 137.851 116.701 137.349C116.558 136.866 116.869 136.307 116.485 135.833C116.416 135.747 116.485 135.555 116.473 135.412C116.403 134.55 116.407 133.676 116.228 132.838C116.142 132.438 116.097 132.042 116.036 131.641C115.971 131.221 115.836 130.804 115.677 130.404C115.526 130.024 115.657 129.623 115.453 129.211C115.253 128.815 115.432 128.234 115.404 127.74C115.347 126.584 115.294 125.424 115.175 124.272C115.143 123.965 114.885 123.684 114.747 123.414C113.894 123.304 113.421 123.9 112.939 124.304C111.482 125.522 109.834 126.355 108.071 126.993C107.851 127.07 107.586 127.021 107.341 127.025C107.129 127.029 106.912 127.042 106.7 127.025C106.043 126.964 105.374 127.164 104.725 126.907C104.142 126.674 103.46 126.768 102.913 126.388C101.865 126.372 101.036 125.791 100.155 125.326C98.4371 124.415 97.009 122.646 96.2133 120.906C96.1398 119.925 95.4298 119.284 94.8831 118.581C94.5117 118.103 94.0221 117.703 93.508 117.327C92.7735 116.784 91.9492 116.571 91.125 116.371C89.5499 115.987 87.9912 115.525 86.5385 114.831C85.2042 114.194 84.1066 113.193 83.4578 111.8C83.3884 111.653 83.3313 111.497 83.2048 111.195C83.2048 110.725 83.1966 110.088 83.2048 109.451C83.217 108.568 83.5435 107.841 84.1433 107.163C85.0124 106.183 86.106 105.651 87.3057 105.247C87.6484 105.133 87.9749 104.973 88.2523 104.859C88.4727 103.923 88.2278 103.119 88.0524 102.326C87.7504 100.958 87.8361 99.5849 88.3217 98.4084C88.7379 97.3994 89.5336 96.8152 90.5455 96.4965C91.9696 96.0512 92.3858 96.3086 94.0751 96.8152C94.422 96.9173 94.7525 97.0685 95.0912 97.1869C95.9766 97.4974 96.2663 97.3503 96.8621 96.6273C97.4742 95.8878 98.1311 95.1607 99.2328 94.7971C99.7034 94.7889 100.08 94.714 100.363 94.5724C100.734 95.0013 101.232 94.6704 101.477 94.7481C101.906 94.9523 102.183 95.0667 102.44 95.2097C103.423 95.753 104.15 96.5251 104.648 97.5464C104.803 97.861 104.542 98.2777 104.929 98.4983C105.007 99.25 105.125 99.9975 105.145 100.749C105.158 101.215 105.003 101.677 104.644 102.032C104.558 102.118 104.533 102.269 104.444 102.477C104.048 102.555 103.591 102.645 103.134 102.739C102.032 102.33 101.934 101.329 101.783 100.467C101.689 99.9363 101.591 99.4052 101.473 98.8782C101.118 98.5146 100.681 98.3675 100.175 98.4084C99.445 98.8986 99.294 99.7361 98.9921 100.463C98.5596 101.509 98.5514 101.603 97.6455 102.04C97.5558 102.085 97.4782 102.155 97.3313 102.253C96.7274 102.208 96.0501 102.371 95.4339 101.856C95.2462 101.697 94.9769 101.562 94.7974 101.37C94.2547 100.786 93.614 100.341 92.8347 99.924H91.786C91.5901 100.185 91.3453 100.508 91.1005 100.831C90.9781 101.967 91.4024 103 91.9941 103.85C92.7367 104.924 93.0958 106.011 93.0061 107.286C92.9979 107.424 93.0061 107.567 93.0061 107.743C92.7204 108.103 92.4226 108.478 92.0798 108.907C91.4922 108.965 90.8883 109.059 90.2803 109.071C89.9539 109.079 89.6315 108.936 89.301 108.875C89.0072 108.817 88.6726 108.993 88.4115 108.679C88.3543 108.609 88.0891 108.695 87.9259 108.732C87.6647 108.789 87.4077 108.858 87.0731 108.944C86.9588 109.059 86.7834 109.234 86.6079 109.406V110.954C86.9547 111.244 87.322 111.563 87.7055 111.861C88.6481 112.588 89.7784 112.85 90.9046 113.156C92.1736 113.499 93.5039 113.667 94.6505 114.414C95.1034 114.712 95.5931 114.949 95.9603 115.358C96.6621 116.138 97.5394 116.747 98.0781 117.678C98.4453 118.311 98.7269 118.969 99.0125 119.639C99.5797 120.955 100.441 122.086 101.795 122.76C102.603 123.161 103.374 123.565 104.321 123.647C104.856 123.692 105.398 123.978 105.962 124.031C107.532 124.178 108.802 123.426 110.083 122.65C111.091 122.041 111.666 121.049 112.417 120.215C113.049 119.508 113.674 118.785 114.379 118.16C114.645 117.927 115.126 117.915 115.518 117.854C115.795 117.809 116.081 117.846 116.359 117.846C116.391 117.878 116.412 117.915 116.444 117.927C117.917 118.499 118.354 119.721 118.378 121.143C118.411 123.099 118.395 125.056 118.387 127.013C118.378 128.725 118.705 130.383 119.207 132.009C119.227 132.075 119.235 132.14 119.239 132.209C119.313 133.104 119.37 134.003 119.46 134.897C119.505 135.367 119.59 135.837 119.672 136.303C119.745 136.736 119.488 137.201 119.868 137.618C119.974 137.733 119.884 138.031 119.884 138.243C119.884 139.845 119.86 141.446 119.892 143.047C119.909 143.836 119.945 144.645 120.129 145.405C120.219 145.772 120.272 146.128 120.312 146.499C120.353 146.863 120.492 147.222 120.512 147.586C120.578 148.795 120.202 149.902 119.725 150.993C119.427 151.675 119.219 152.382 119.239 153.142C119.247 153.497 119.219 153.857 119.247 154.208C119.288 154.751 119.211 155.283 119.411 155.842C119.545 156.222 119.582 156.761 119.28 157.256C119.092 157.566 119.243 158.089 119.243 158.469C119.084 158.735 118.88 158.947 118.823 159.196C118.427 160.928 116.738 162.46 115.485 163.106C114.579 163.571 113.596 163.898 112.731 164.425C111.576 165.128 110.299 165.688 109.43 166.909L109.426 166.942ZM152.773 78.5502C153.564 79.8575 154.352 79.9515 155.755 79.1058C157.143 78.2684 158.216 77.0632 159.53 76.1441C160.252 75.6375 160.901 75.0206 161.639 74.5467C162.562 73.9544 163.329 73.17 164.19 72.5082C164.447 72.3121 164.704 72.0017 164.9 71.6708C165.128 71.2868 165.569 71.0376 165.842 70.6699C166.328 70.0122 166.768 69.3136 166.589 68.423C166.56 68.2882 166.589 68.1452 166.589 68.0268C165.932 67.2996 165.259 67.1362 164.288 67.4508C163.084 67.8389 162.158 68.5864 161.244 69.3504C160.117 70.29 159.211 71.4829 158.012 72.353C157.481 72.737 157.061 73.2926 156.498 73.599C155.919 73.9176 155.576 74.4364 155.094 74.8327C154.617 75.2249 154.095 75.5885 153.687 76.046C153.099 76.7078 152.52 77.4105 152.773 78.5502ZM137.814 161.382C138.838 161.786 139.646 161.733 140.564 161.218C141.119 160.908 141.653 160.446 141.755 159.87C141.902 159.07 141.898 158.187 141.719 157.39C141.384 155.879 140.69 154.486 139.919 153.146C139.678 152.729 139.552 152.202 138.972 151.978C138.777 152.28 138.597 152.554 138.495 152.709C138.393 153.591 138.299 154.339 138.218 155.086C138.14 155.801 138.075 156.516 138.001 157.231C137.597 157.546 137.867 158.011 137.736 158.395C137.463 159.204 137.516 160.573 137.809 161.374L137.814 161.382Z" fill="black"/>
<path d="M22.9486 74.1055C23.1118 74.2689 23.2628 74.4201 23.4179 74.5753C23.475 74.7919 23.5321 75.0165 23.6137 75.3393C23.6341 75.278 23.6137 75.327 23.6015 75.376C23.3811 76.046 23.0139 76.6261 22.6671 77.2348C22.2019 78.0518 21.651 78.9138 21.7775 79.9555C21.4756 80.5765 21.4348 81.2792 21.5939 81.8878C21.9571 83.285 21.7367 84.6821 21.7489 86.0752C21.753 86.7247 21.6469 87.411 21.398 88.0524C21.2511 88.4282 21.3491 88.8327 21.1736 89.2412C20.9573 89.7519 21.043 90.3891 20.9165 90.9488C20.6187 92.2561 20.6391 93.6246 20.1208 94.887C20.0474 95.0708 20.076 95.2995 20.076 95.5079C20.0719 96.182 20.0229 96.8642 20.0841 97.5342C20.2229 98.9967 20.5738 100.369 21.6796 101.468C22.2304 102.016 22.7323 102.649 23.1037 103.327C23.5239 104.107 23.8749 104.953 23.9116 105.872C23.9279 106.227 23.8912 106.587 23.9198 106.938C24.0585 108.683 23.2791 110.137 22.4304 111.55C21.9571 112.343 21.2593 114.047 21.1369 114.966C21.0838 115.354 20.7207 115.746 21.0145 116.118C21.296 116.473 21.0063 116.865 21.2144 117.217C21.4144 117.552 21.5408 117.936 21.6755 118.303C22.0264 119.28 22.5854 120.097 23.324 120.828C23.7239 121.224 24.2054 121.567 24.6787 121.674C25.7437 121.919 26.5639 122.544 27.3596 123.177C28.0002 123.688 28.4858 124.403 29.0285 125.032C29.1101 125.126 29.1142 125.289 29.1917 125.387C29.3508 125.579 29.5385 125.742 29.714 125.918C29.9343 125.975 30.1588 126.033 30.3791 126.094C30.375 126.11 30.371 126.131 30.3669 126.147C30.3914 126.155 30.424 126.18 30.4403 126.167C30.7872 125.967 31.1666 125.812 31.4604 125.555C31.7624 125.289 32.0113 124.942 32.2153 124.595C32.5336 124.055 32.7743 123.471 33.0845 122.928C33.9495 121.416 34.8105 119.905 35.9122 118.548C36.5569 117.756 37.1527 116.927 37.7729 116.118C38.6135 115.023 39.0419 113.736 39.4826 112.449C39.7152 111.763 39.9396 111.073 40.2212 110.407C40.8169 109.014 40.9312 107.927 40.5639 106.232C40.4619 105.758 40.5476 105.239 40.5476 104.728C40.7761 104.41 41.0169 104.079 41.2331 103.78H42.0084C42.6735 104.009 42.9102 104.434 43.1428 104.949C43.3876 105.488 43.6773 106.003 43.8691 106.571C44.1139 107.306 44.5261 107.943 44.9912 108.564C45.7135 109.524 46.2439 110.57 46.5459 111.763C46.7703 112.637 46.7254 113.491 46.7132 114.349C46.7009 115.186 46.8152 115.975 47.1335 116.588C47.9047 117.36 48.7901 117.221 49.6389 117.225C50.81 117.229 51.9851 117.225 53.1562 117.225C53.7805 116.972 54.1274 116.51 54.4334 115.897C54.8945 114.974 55.527 114.136 56.1105 113.283C56.8409 112.212 57.5468 111.126 58.0283 109.916C58.3098 109.21 58.5751 108.507 58.7097 107.735C58.8117 107.155 58.8893 106.583 58.8811 106.003C58.8485 104.136 58.065 102.677 56.494 101.636C55.9024 101.244 55.3556 100.782 54.7803 100.361C53.601 99.491 52.2871 98.8537 50.9732 98.2246C49.3002 97.4239 48.223 96.1043 47.6599 94.3518C47.6068 94.1925 47.5782 94.0168 47.5823 93.8493C47.615 92.828 47.4926 91.8149 47.9659 90.8058C48.2556 90.189 48.1781 89.3924 48.2107 88.6693C48.2474 87.8522 48.2148 87.0311 48.2189 86.2141C48.2189 85.8995 48.174 85.5604 48.2678 85.2745C48.5045 84.5555 48.582 83.7956 49.0472 83.1379C49.3736 82.6804 49.7205 82.3086 50.1734 81.9859C51.014 81.3976 52.0178 81.2792 52.944 80.9442C54.2539 80.4744 54.2702 80.5234 55.3107 79.4817C55.2005 79.0731 55.1271 78.6074 54.9516 78.1785C54.6089 77.3451 54.2702 76.5362 54.1478 75.6171C54.0907 75.1881 54.0866 74.7183 53.9438 74.3221C53.7928 73.9135 53.8213 73.5173 53.7479 73.121C53.6581 72.6349 53.4827 72.1692 53.3317 71.6953C53.0909 70.9436 52.8339 70.1919 52.4626 69.4934C52.1728 68.9459 51.8464 68.3903 51.2711 68.088C50.7896 67.8348 50.3611 67.5365 49.696 67.8593C49.088 68.1534 48.3862 68.3005 47.7863 68.6477C46.5989 69.334 45.2932 69.7752 43.9793 69.9795C42.7266 70.1756 41.4127 70.1633 40.1804 69.428C39.3357 68.9255 39.0909 68.1902 38.8501 67.4058C38.7767 67.1689 38.993 66.838 39.1031 66.4621C39.605 65.6859 40.5272 65.4 41.4249 65.1426C42.3226 64.8812 43.2162 64.6483 43.9589 64.0519C44.2853 63.7904 44.5465 63.4268 44.9015 63.2267C45.6155 62.8222 45.9542 62.0787 46.5214 61.5476C47.007 61.0942 47.1171 60.3834 47.3457 59.7665C47.4926 59.3621 47.566 58.9331 47.668 58.5123C47.9128 57.4992 48.4882 56.6536 49.1982 55.955C49.9367 55.2319 50.304 54.4762 50.0918 53.4467C49.5287 52.8543 48.7412 52.597 48.0067 52.3355C46.8234 51.9188 45.9909 51.2162 45.4238 50.1009C44.9912 49.243 44.4445 48.4423 43.9426 47.6212C43.8365 47.4496 43.7059 47.2862 43.5712 47.1351C42.8286 46.3344 42.2043 45.4846 42.5226 44.1815C42.7919 43.9976 43.155 43.7525 43.4815 43.5278C44.5709 43.7811 45.3381 44.2754 45.9705 45.1946C46.5581 46.0525 47.1253 46.9226 47.6599 47.8173C48.223 48.761 48.9778 49.4432 50.0469 49.7496C50.3611 49.8395 50.6753 49.9457 50.9813 50.0641C52.2218 50.5585 53.2134 51.3224 53.7601 52.7971C53.7601 52.9565 53.7275 53.3119 53.7642 53.6591C53.9397 55.1584 53.1195 56.2369 52.2789 57.3154C51.9403 57.7525 51.524 58.1242 51.165 58.545C50.5325 59.2885 50.5692 60.2322 50.153 61.0247C49.8674 61.5722 49.7368 62.2054 49.5736 62.81C49.492 63.1082 49.5001 63.4268 49.4716 63.7046C50.0836 64.1499 50.659 64.0069 51.3159 63.8721C52.1973 63.6842 53.0542 63.4268 53.9274 63.2226C54.7231 63.0347 55.3719 62.5771 56.086 62.2462C57.5223 61.5885 58.9505 60.943 60.4317 60.3793C61.5865 59.9381 62.7167 59.3335 63.7164 58.5042C64.6346 57.7443 65.6996 57.201 66.9237 56.9886C67.752 56.8456 68.5681 56.6495 69.4128 56.5433C69.9514 56.4779 70.4859 56.3676 71.0327 56.3635C72.2772 56.3554 73.2892 56.8497 74.0522 57.8056C74.3093 58.1283 74.4603 58.5614 74.5827 58.9658C74.803 59.7011 75.0152 60.3915 74.7051 61.229C74.4399 61.948 74.3256 62.6833 73.8197 63.3247C73.1709 64.1417 72.4935 64.8852 71.6407 65.5021C71.0082 65.9597 70.4614 66.5602 70.1309 67.7817C70.0493 68.3577 70.4492 69.2891 70.7226 70.2123C71.1347 71.6136 71.1184 72.9862 70.796 74.3629C70.6981 74.7919 70.3839 75.2085 70.0779 75.5476C69.5597 76.1236 69.1557 76.814 68.4498 77.2144C68.0948 77.4146 67.8295 77.7414 67.499 77.9906C66.4544 78.7872 65.2507 79.0977 64.0306 79.4245C63.4267 79.5879 62.831 79.7881 62.2434 80.0046C61.5334 80.2619 60.8397 80.5602 60.1338 80.8257C59.6931 80.9932 59.2157 80.9809 58.7587 81.0912C58.2242 81.2179 57.7998 81.4221 57.4529 81.8102C56.8286 82.5088 56.0778 83.0562 55.2169 83.3667C54.6946 83.5546 54.1927 83.8038 53.6377 83.9468C52.6666 84.2001 51.8423 84.7393 51.4139 85.826C51.4139 86.5368 51.3527 87.362 51.4343 88.175C51.4996 88.8245 51.218 89.3883 51.1731 90.0092C51.1323 90.5607 50.9405 91.1204 50.8426 91.6678C50.7161 92.395 50.5896 93.1834 50.9813 93.9106C51.0262 93.9923 50.9854 94.1189 50.9854 94.1884C51.5893 95.1116 52.4993 95.5937 53.4174 96.0431C55.5188 97.0766 56.9306 98.1102 58.1385 99.062C58.6404 99.4583 59.1994 99.7892 59.689 100.202C60.8234 101.158 61.3212 102.445 61.6762 103.862C61.9863 105.088 61.9455 106.321 61.8109 107.51C61.6844 108.634 61.3335 109.757 60.9091 110.856C60.2521 112.555 59.2035 113.998 58.2935 115.534C57.8692 116.248 57.5713 116.898 58.1466 117.654C58.2038 117.731 58.2282 117.834 58.2854 117.972C59.2932 118.646 60.3338 119.37 61.4069 120.048C62.2556 120.587 63.0146 121.22 63.7164 121.939C64.8223 123.071 65.2303 124.452 65.0304 125.967C64.9528 126.555 64.81 127.229 64.4142 127.724C63.998 128.243 63.5451 128.766 63.0065 129.15C61.9782 129.885 60.8275 130.277 59.5136 130.253C58.2405 130.228 57.0163 130.044 55.8167 129.636C55.4086 129.497 54.9639 129.583 54.5232 129.411C54.0009 129.207 53.3806 129.26 52.8135 129.158C52.4503 129.092 52.1239 128.925 51.7281 128.937C51.369 128.949 51.0058 128.81 50.6427 128.741C50.2795 128.672 49.8878 128.663 49.5654 128.516C48.7861 128.157 47.9455 127.904 47.2967 127.295C46.0236 126.09 45.1871 124.578 44.3914 123.054C44.016 122.331 43.7793 121.527 43.5304 120.746C43.1713 119.627 43.2122 118.446 43.355 117.319C43.4488 116.596 43.5223 115.881 43.51 115.162C43.5019 114.663 43.3386 114.181 42.9714 113.728C42.6327 113.957 42.4165 114.181 42.2084 114.537C41.7105 115.399 41.4331 116.379 40.7557 117.147C40.4007 117.548 40.1804 118.07 39.8131 118.454C38.3156 120.04 37.1649 121.874 36.0632 123.737C35.3369 124.962 34.7452 126.269 33.921 127.438C33.566 127.936 33.1987 128.426 32.807 128.896C32.3133 129.484 31.9297 130.101 32.0031 130.914C32.0358 131.302 31.9011 131.67 31.8195 132.046C31.7746 132.25 31.8726 132.487 31.9174 132.798C31.9174 132.798 31.8195 132.912 31.7991 133.039C31.7665 133.21 31.7787 133.394 31.795 133.57C31.9215 135.29 31.3339 136.805 30.5179 138.272C29.8731 139.432 28.8897 140.18 27.6819 140.637C27.3392 140.768 26.8373 140.572 26.568 140.76C26.1762 141.029 25.9437 140.731 25.6499 140.731C23.6749 140.715 22.1244 139.591 20.4922 138.75C19.6557 138.317 18.9906 137.536 18.4805 136.679C17.6848 135.335 17.2686 133.835 16.6565 132.418C16.4852 132.025 16.3872 131.605 16.2199 131.213C15.9873 130.669 15.7548 130.122 15.461 129.607C15.1753 129.1 15.3141 128.475 14.9468 128.002C14.9142 127.957 14.9346 127.863 14.9468 127.793C15.0162 127.36 15.0896 126.927 15.159 126.494C15.2243 126.09 15.1223 125.698 15.2977 125.273C15.5589 124.635 15.5915 123.904 15.816 123.242C16.0159 122.654 16.2893 122.09 16.4566 121.478C16.6157 120.897 16.7708 120.325 16.9014 119.737C17.0197 119.19 17.1707 118.634 17.338 118.107C17.5787 117.343 17.6399 116.547 17.9052 115.787C18.0847 115.264 17.946 114.647 18.1377 114.067C18.5825 112.715 18.9702 111.363 19.7577 110.145C20.3453 109.234 20.7982 108.176 20.8798 107.106C20.9614 106.007 20.5615 104.945 19.8148 104.042C19.064 103.135 18.2642 102.248 17.7787 101.154C17.5338 100.606 17.4155 100.018 17.2604 99.4419C17.0075 98.4983 17.1421 97.5709 17.085 96.6395C17.0687 96.3903 17.0075 96.1084 17.0972 95.9001C17.3869 95.2097 17.3421 94.4498 17.595 93.7594C17.6522 93.6042 17.7256 93.4367 17.7134 93.2774C17.6399 92.1907 17.7297 91.1081 17.9582 90.0623C18.15 89.1881 18.2153 88.2853 18.5499 87.4315C18.8151 86.7574 18.9783 83.6894 18.7539 82.9459C18.5213 82.1779 18.5948 81.4344 18.5744 80.6786C18.5335 79.2039 18.9702 77.819 19.5169 76.4831C19.8556 75.6497 20.4718 74.9716 21.1695 74.4038C21.3858 74.2281 21.7122 74.1586 22.0019 74.1137C22.3121 74.0647 22.6385 74.1015 22.9404 74.1015L22.9486 74.1055ZM71.2163 60.3057C70.7879 59.7828 70.237 59.4846 69.5148 59.5908C69.0822 59.6562 68.6538 59.7583 68.2172 59.7992C67.2583 59.885 66.4055 60.2976 65.671 60.8409C64.6182 61.6212 63.6185 62.4464 62.3454 62.8631C61.4722 63.149 60.6316 63.529 59.7747 63.8558C58.9138 64.1826 58.1874 64.8076 57.253 64.9751C57.1388 64.9956 57.0694 65.2121 56.947 65.257C56.2982 65.5144 55.9677 66.1231 55.4535 66.5357C55.3882 67.0259 55.2005 67.5202 55.2903 67.9573C55.4576 68.758 55.8044 69.5179 56.0452 70.3063C56.2982 71.1274 56.6369 71.9486 56.7266 72.7901C56.8327 73.84 57.1143 74.8327 57.4081 75.8254C57.7549 76.9979 59.2565 77.8517 60.3256 77.4554C61.5946 76.9856 62.8963 76.622 64.1939 76.2503C65.4955 75.8744 66.4871 75.0656 67.3317 74.0647C67.5929 73.7501 67.801 73.2967 67.8255 72.8963C67.8867 71.875 67.9234 70.8415 67.4337 69.8692C67.2134 69.4321 67.0747 68.9337 67.0094 68.4516C66.9359 67.892 66.9849 67.3159 66.9971 66.7481C66.9971 66.5479 67.0665 66.3559 67.1155 66.1639C67.3521 65.2325 67.9683 64.5707 68.6701 64.0478C69.2944 63.5821 69.7963 63.0101 70.3758 62.5158C71.0531 61.9357 71.4244 61.2453 71.2245 60.3139L71.2163 60.3057ZM19.7985 123.001C19.1864 123.418 18.9294 123.978 18.656 124.525C18.5662 124.709 18.1704 126.494 18.1459 126.658C17.9949 127.748 18.4315 128.716 18.7947 129.693C19.0803 130.461 19.4639 131.192 19.7332 131.964C20.0352 132.834 20.3616 133.704 20.7452 134.526C21.1328 135.359 21.7571 136.107 22.716 136.462C23.1118 136.609 23.4587 136.891 23.8381 137.087C24.7195 137.549 25.6784 137.581 26.6373 137.504C26.8822 137.483 27.1433 137.324 27.3392 137.161C28.2165 136.438 28.6939 135.42 28.7673 134.362C28.8653 132.981 29.0162 131.56 28.5837 130.195C28.4368 129.73 28.2287 129.252 27.9308 128.876C27.5554 128.394 27.2045 127.908 26.8658 127.401C26.0661 126.204 25.1235 125.121 23.6994 124.607C23.4546 124.517 23.2138 124.403 22.9853 124.28C22.2264 123.876 21.4756 123.463 20.6268 123.001H19.7944H19.7985ZM47.5211 121.527C47.6109 122 47.5742 122.65 47.8476 123.116C48.3903 124.031 49.1288 124.811 50.0592 125.383C50.7365 125.804 51.524 125.787 52.2585 125.971C53.1032 126.184 53.9886 126.269 54.8496 126.376C56.0248 126.519 57.102 127.099 58.3017 127.058C58.8117 127.495 59.3096 127.127 59.8278 127.082C60.4888 127.025 60.8805 126.649 61.2967 126.241C61.4232 126.118 61.5701 126.02 61.6395 125.963V124.599C61.4804 124.362 61.3498 124.125 61.1743 123.92C60.0114 122.544 58.469 121.69 56.8858 120.922C56.388 120.681 55.8126 120.456 55.2781 120.464C53.5969 120.497 51.9321 120.264 50.2591 120.244C49.2635 120.232 48.2964 120.46 47.513 121.527H47.5211Z" fill="black"/>
<path d="M160.203 0.355358C160.407 0.559618 160.709 0.861923 161.011 1.16423C161.166 2.06297 161.602 2.94537 161.443 3.85637C161.08 5.96025 161.329 8.0723 161.255 10.1762C161.243 10.5438 160.982 10.9115 161.251 11.2792C160.97 11.6387 161.043 12.0635 161.039 12.4721C161.035 12.901 161.039 13.3259 161.039 13.7548V21.4391C161.039 21.868 161.039 22.2929 161.039 22.7218C161.043 23.1671 161.039 23.592 161.231 24.0291C161.402 24.4213 161.166 24.8747 161.423 25.3404C161.631 25.7081 161.496 26.2514 161.643 26.7335C161.839 27.379 161.737 28.1061 161.904 28.7679C162.243 30.1242 162.059 31.4887 162.092 32.8449C162.125 34.1971 162.1 35.5493 162.1 36.9016C162.1 37.7921 162.006 38.6909 162.116 39.5692C162.455 42.2409 162.451 44.933 162.263 47.5925C161.994 51.4816 162.214 55.3666 162.088 59.2476C162.076 59.6806 161.929 60.1096 161.839 60.5548C161.696 60.7428 161.533 60.9593 161.296 61.2738C161.19 61.3229 160.953 61.4332 160.643 61.5761C160.264 61.3188 159.88 61.0573 159.574 60.849C159.476 60.371 159.464 59.9788 159.313 59.6561C159.064 59.1209 159.117 58.5776 159.117 58.0302C159.117 55.9304 159.129 53.8306 159.097 51.7308C159.097 51.4653 159.436 51.2324 159.129 50.9342C158.86 50.6728 159.472 50.3909 159.154 50.0395C159.068 49.9415 159.297 49.5943 159.317 49.3573C159.35 49.006 159.325 48.6465 159.325 48.2911V42.2082C159.325 41.8896 159.354 41.5628 159.321 41.2482C158.925 37.4408 159.195 33.6211 159.105 29.8056C159.097 29.4787 158.954 29.156 158.905 28.8251C158.856 28.4901 158.86 28.1756 158.721 27.8324C158.554 27.4157 158.632 26.9132 158.505 26.4312C158.313 25.7122 158.403 24.9197 158.248 24.1843C157.84 22.2602 158.146 20.3238 158.056 18.3997C158.036 17.9585 157.995 17.5214 158.244 17.0883C158.358 16.8922 158.346 16.5327 158.06 16.3367C158.326 16.1773 158.264 15.9159 158.264 15.6749C158.264 11.9042 158.264 8.13766 158.264 4.50592C157.95 3.76241 157.526 3.29262 156.718 2.99848H147.1C145.08 3.42743 143.036 3.15372 141.004 3.20274C138.943 3.25176 136.879 3.26811 134.822 3.19457C133.345 3.14146 131.905 3.49688 130.432 3.43968C128.942 3.38249 127.424 3.27219 125.959 3.46828C124.344 3.68888 122.744 3.59492 121.136 3.63169C119.537 3.66845 117.921 3.78693 116.342 3.60718C113.453 3.28036 110.568 3.50505 107.683 3.43968C106.932 3.42334 106.181 3.59492 105.427 3.63169C104.68 3.66845 103.901 3.50096 103.195 3.67254C102.289 3.89314 101.399 3.79101 100.501 3.86046C100.138 3.88906 99.7792 3.99936 99.4161 4.06472C99.0896 4.126 98.702 3.91357 98.4327 4.27306C98.4082 4.30575 98.294 4.28532 98.2246 4.27306C97.5268 4.1791 96.8617 4.44056 96.1803 4.47732C95.507 4.51818 94.8296 4.48549 94.1564 4.48549C93.5157 4.48549 92.8751 4.47732 92.2386 4.48549C91.2184 4.50592 90.231 4.76737 89.2353 4.96346C88.354 5.13913 87.4807 5.35564 86.6034 5.56399C85.3711 5.85812 84.0858 5.90306 82.8902 6.37286C82.4577 6.54035 81.9191 6.26664 81.4988 6.62205C80.6541 6.46682 79.8625 6.86308 79.026 6.84265C78.1732 6.81814 77.2796 6.99381 76.4757 6.79772C75.4924 6.55669 74.5335 6.71193 73.5705 6.62205C72.9951 6.56895 72.4239 6.45456 71.8444 6.41779C71.2405 6.38103 70.6162 6.50767 70.0368 6.3892C69.0004 6.17268 67.9517 6.09506 66.903 5.97251C66.5398 5.93165 66.2093 5.74782 65.8176 5.75191C65.4218 5.76008 65.026 5.60075 64.6261 5.56399C64.2385 5.52722 63.8059 5.66203 63.4632 5.53539C62.5696 5.20857 61.6678 5.3679 60.7701 5.35564C60.2314 5.34747 59.6928 5.51088 59.1501 5.54765C58.5829 5.58441 57.9709 5.42101 57.4567 5.5885C56.7263 5.82544 56.0041 5.65386 55.2982 5.7805C52.9519 6.20128 50.5934 5.87855 48.239 5.97251C47.8432 5.98885 47.4433 5.87446 47.0026 5.81318C46.974 5.8377 46.8965 5.90714 46.8271 5.97251C46.7455 5.89897 46.668 5.83361 46.6476 5.81318C46.1253 5.89489 45.6561 5.96842 45.0195 6.06647C44.7216 6.39737 44.3095 6.85491 44.0361 7.1613C43.8403 7.78634 44.1667 8.28473 43.7464 8.6524C43.8158 8.73002 43.9545 8.85257 43.9382 8.88525C43.6974 9.29786 43.9994 9.69412 43.9586 10.1026C43.9137 10.597 43.9463 11.0994 43.9463 11.5978V12.9868C43.9463 13.4484 43.9953 13.9182 43.9341 14.3717C43.8035 15.3603 44.2483 16.2958 44.1585 17.2722C44.5054 17.7665 44.387 18.3752 44.5503 18.9185C44.7053 19.4414 44.6074 20.0501 44.5788 20.6179C44.5462 21.3247 44.3993 22.0192 44.1993 22.7014C44.1789 22.7668 44.1544 22.8321 44.1585 22.8975C44.2483 24.0168 43.828 25.0953 43.93 26.2269C44.0198 27.2319 43.5995 28.1225 43.1017 29.0008H41.8816C41.4409 28.6249 41.2532 28.1061 41.1268 27.4525C40.988 26.7212 40.9146 26.0063 40.9758 25.2914C41.0696 24.1639 40.682 23.1303 40.4576 22.0723C40.4045 21.8149 40.3311 21.5494 40.3229 21.2838C40.3066 20.8222 40.3147 20.3606 40.3229 19.8949C40.3311 19.1718 40.3107 18.4569 40.5228 17.7379C41.2206 15.348 40.8982 12.8806 40.9635 10.4458C40.5881 9.42859 40.8942 8.35418 40.7187 7.33696C40.6004 6.65065 40.5555 5.97251 40.5351 5.28619C40.4657 3.24768 42.612 1.80969 44.2279 2.51643C44.3177 2.55728 44.4278 2.56545 44.5299 2.55728C45.4684 2.50826 46.3742 2.93312 47.3209 2.7738C49.2673 3.21091 51.2422 2.8841 53.2049 2.99031C54.3556 3.05159 55.4777 2.61039 56.6366 2.7738C57.4323 2.40204 58.281 2.61447 59.1052 2.56137C59.2685 2.23046 59.5786 2.57771 59.8275 2.40204C60.0193 2.26723 60.3702 2.35302 60.6517 2.34894C60.97 2.34485 61.2924 2.33668 61.6106 2.34894C62.2962 2.38162 62.9694 2.31217 63.6631 2.53277C64.2997 2.73703 65.0505 2.3857 65.6993 2.7738C66.4378 2.6063 67.1193 3.01482 67.8497 3.00257C68.3148 2.9944 68.7841 3.13329 69.2533 3.19866C69.6859 3.25993 70.1633 3.04342 70.555 3.407C70.5917 3.44377 70.6937 3.407 70.7631 3.41109C72.2606 3.48054 73.7622 3.54181 75.2598 3.6276C76.1575 3.67663 77.0511 3.75016 77.9447 3.84003C78.7486 3.92174 79.5198 3.66028 80.3114 3.63577C81.0663 3.61126 81.7803 3.50096 82.4863 3.215C82.8127 3.08019 83.1963 3.17006 83.5757 3.01891C84.098 2.81056 84.7264 2.89635 85.2855 2.75746C86.224 2.52868 87.191 2.43881 88.1214 2.14468C88.7865 1.93225 89.4965 1.8628 90.1779 1.69939C91.9121 1.28678 93.6749 1.54415 95.4213 1.51147C95.9518 1.49921 96.421 1.31538 96.9311 1.26636C97.4371 1.22142 97.9879 1.4747 98.4449 1.0621C98.4653 1.04576 98.5143 1.0621 98.551 1.0621C99.4446 0.992649 100.342 0.927286 101.236 0.845582C101.954 0.784304 102.668 0.678089 103.386 0.641322C104.129 0.604556 104.908 0.763878 105.618 0.608641C107.263 0.245058 108.907 0.486085 110.548 0.432977C112.216 0.37987 113.91 0.261399 115.554 0.469744C117.031 0.657663 118.488 0.58413 119.949 0.624982C121.442 0.665834 122.952 0.780219 124.421 0.60047C126.812 0.310421 129.199 0.502426 131.586 0.420722C132.602 0.0693945 133.659 0.232802 134.696 0.212376C135.724 0.19195 136.756 0.228717 137.789 0.196036C138.189 0.18378 138.637 0.383955 138.984 -0.00413911C139.017 -0.0409059 139.127 -0.0286503 139.192 -0.00413911C140.049 0.298166 140.906 0.322677 141.771 0.0326277C142.832 0.412551 143.934 0.0693945 145.003 0.228717C145.289 0.269569 145.525 -0.216569 145.786 0.200121C146.011 -0.143036 146.362 0.0162869 146.66 -0.00413911C147.015 -0.0245651 147.37 -0.00822431 147.725 -0.00822431H156.575C156.893 -0.00822431 157.216 -0.00822431 157.534 -0.00822431C158.395 -5.39161e-05 159.268 -0.114439 160.194 0.330847L160.203 0.355358Z" fill="black"/>
<path d="M9.09529 143.145C9.75224 143.721 10.4786 144.51 11.3436 145.078C12.176 145.625 13.0044 146.193 13.8613 146.708C15.371 147.619 16.8686 148.546 18.362 149.482C18.9292 149.837 19.4515 150.27 20.0309 150.605C21.1122 151.222 21.1245 151.201 22.3813 151.156C22.7526 150.576 23.0627 149.955 23.0545 149.216C23.0464 148.611 23.0627 148.007 23.0545 147.402C23.0423 146.781 23.2259 146.177 23.3238 145.576C23.4259 144.947 23.8584 144.33 24.4827 143.93C24.703 143.93 24.956 143.897 25.2009 143.942C25.3886 143.975 25.5559 144.101 25.7884 144.212C25.7966 144.257 25.7803 144.387 25.8415 144.444C26.3883 144.959 26.4413 145.658 26.4617 146.32C26.5066 147.884 26.474 149.449 26.478 151.018C26.478 151.639 26.731 152.513 27.1064 153.211C27.6573 154.241 28.5223 154.698 29.571 154.363C30.0484 154.212 30.5422 154.143 31.0033 153.971C31.497 153.787 31.9866 153.595 32.4763 153.407C32.9374 153.232 33.4026 153.064 33.8555 152.876C34.8919 152.443 35.9569 152.108 37.0464 151.818C37.8135 151.614 38.597 151.438 39.3315 151.165C40.0537 150.895 40.8086 150.801 41.5349 150.568C42.5754 150.233 43.6486 149.996 44.7095 149.755C45.5542 149.563 46.3784 149.175 47.2924 149.257C47.574 149.281 47.88 149.151 48.1616 149.053C48.9001 148.795 49.6877 148.799 50.4344 148.615C50.9689 148.481 51.5402 148.374 51.9809 147.978C52.0992 147.872 52.2624 147.807 52.4338 147.704C52.7031 147.067 52.7766 146.581 52.7072 145.805C52.6991 145.699 52.7195 145.588 52.7072 145.486C52.6338 144.943 52.8133 144.404 52.5481 143.844C52.3196 143.37 52.6705 142.737 52.2828 142.247C52.4461 141.47 51.9442 140.747 52.0829 139.988C52.1645 139.538 51.8544 139.207 51.8462 138.795C51.8381 138.394 51.9809 137.965 51.6545 137.59C51.5647 137.487 51.6422 137.246 51.6422 137.067C51.6422 136.499 51.6259 135.927 51.6463 135.359C51.6708 134.64 51.7279 133.921 51.7646 133.284C52.2216 132.749 52.6093 132.328 53.2662 132.177C54.372 132.442 54.7311 133.357 54.8168 134.346C54.8984 135.273 55.0412 136.196 55.0943 137.136C55.1555 138.247 55.3473 139.371 55.5227 140.478C55.6003 140.984 55.6084 141.499 55.7145 141.993C55.8206 142.5 55.8247 143.019 55.9389 143.505C56.1593 144.453 56.147 145.437 56.502 146.36C56.6816 146.826 56.4245 147.398 56.7632 147.856C56.702 148.963 57.3141 149.98 57.1916 151.095C57.6038 152.337 57.5548 153.673 57.9873 154.927C58.1628 155.438 58.1587 156.063 58.2607 156.631C58.3178 156.957 58.3995 157.284 58.4729 157.611C58.5504 157.979 58.375 158.346 58.6035 158.735C58.7585 159.004 58.6035 159.437 58.6973 159.76C59.0319 160.855 59.1462 161.97 59.1135 163.11C59.0972 163.776 58.8728 164.331 58.3791 164.85H57.0733C56.4531 164.254 56.1266 163.477 55.9022 162.611C55.6084 161.468 55.4289 160.307 55.2371 159.143C55.1024 158.314 55.0984 157.448 54.8331 156.651C54.4741 155.577 54.4945 154.421 54.013 153.362C53.5845 152.419 53.6743 152.378 52.8133 151.839C52.3277 151.839 51.7483 151.675 51.3566 151.88C50.8914 152.125 50.365 151.839 50.0631 152.088C49.6346 152.443 49.0552 152.01 48.7206 152.48C47.5658 152.505 46.4845 152.929 45.3624 153.138C44.1219 153.367 42.9019 153.702 41.6818 154.024C40.1802 154.425 38.6745 154.829 37.1892 155.283C36.316 155.548 35.4387 155.842 34.5859 156.202C33.6474 156.598 32.7171 157.035 31.7459 157.321C30.0117 157.832 28.5509 158.735 27.3309 160.054C27.2084 160.185 27.0819 160.307 27.0126 160.377C26.5719 161.292 26.6617 162.203 26.7065 163.098C26.731 163.649 26.5596 164.172 26.6657 164.74C26.7759 165.324 26.6902 165.945 26.6902 166.55C26.6902 167.154 26.7106 167.759 26.6821 168.363C26.6657 168.702 26.8208 169.062 26.5556 169.376C26.3271 169.646 26.6413 170.071 26.274 170.336C26.1475 170.426 26.2006 170.737 26.0904 170.884C25.9557 171.064 25.7313 171.178 25.5314 171.305C25.258 171.48 25.0132 171.46 24.7398 171.48C24.4949 171.313 24.2501 171.145 23.9033 170.908C23.7931 170.59 23.585 170.165 23.4952 169.716C23.0423 167.411 23.332 165.079 23.2994 162.763C23.2912 162.162 23.0464 161.623 23.0586 161.039C23.0709 160.471 23.1851 159.862 23.0341 159.339C22.6832 158.126 22.3772 156.888 21.353 155.973C20.5328 155.242 19.6596 154.6 18.7741 153.955C17.8723 153.301 16.9542 152.68 16.0321 152.059C14.9263 151.316 13.7837 150.625 12.6575 149.919C11.7843 149.371 10.9233 148.791 10.0175 148.305C9.53189 148.044 8.96879 147.892 8.42201 147.798C7.85891 147.7 7.41006 148.064 7.1285 148.493C6.65925 149.216 6.36954 150.058 6.24713 150.891C6.12879 151.696 5.76155 152.439 5.75747 153.26C5.33718 153.563 5.71259 154.049 5.47592 154.429C5.27598 154.751 5.2719 155.193 5.14132 155.568C4.82305 156.488 4.71695 157.46 4.4354 158.375C4.28851 158.857 4.34155 159.355 4.11713 159.842C3.88454 160.34 3.96207 160.981 3.86006 161.549C3.79477 161.913 3.62339 162.24 3.63971 162.636C3.65196 162.995 3.51322 163.359 3.44385 163.723C3.37448 164.086 3.33368 164.458 3.22351 164.805C3.06029 165.316 2.88075 165.839 2.44006 166.182C2.06874 166.476 1.65661 166.717 1.13839 166.513C0.640578 166.317 0.338624 165.961 0.244773 165.406C0.114199 164.646 -0.208157 163.894 0.232532 163.122C0.310061 162.987 0.248854 162.771 0.240693 162.595C0.220291 161.807 0.387589 161.051 0.628336 160.303C0.758911 159.891 0.767072 159.441 0.844601 159.012C1.13023 157.501 1.47707 156.014 1.89736 154.535C2.03201 154.061 2.12586 153.567 2.28908 153.093C2.44006 152.652 2.42782 152.174 2.57063 151.716C2.89707 150.674 3.09701 149.596 3.39897 148.538C3.60707 147.807 3.70908 147.026 3.87638 146.275C4.16609 144.98 4.35379 143.656 4.86385 142.418C5.03115 142.01 4.96586 141.573 5.10868 141.135C5.44328 140.126 5.54937 139.044 5.7942 137.998C5.96557 137.255 6.12063 136.507 6.3573 135.78C6.50011 135.335 6.545 134.861 6.63885 134.403C6.79799 133.615 6.89184 132.806 7.14483 132.05C7.30396 131.568 7.29988 131.07 7.47126 130.588C7.86299 129.493 7.92419 128.308 8.30776 127.197C8.49138 126.662 8.45057 126.053 8.56891 125.485C8.68316 124.93 8.71988 124.362 8.92391 123.818C9.10345 123.344 8.83822 122.777 9.1973 122.331C9.38092 120.734 9.93178 119.227 10.3439 117.686C10.6622 116.502 11.1804 115.374 11.3355 114.145C11.364 113.92 11.462 113.703 11.5436 113.487C12.1311 111.906 12.4576 110.247 13.0084 108.654C13.3308 107.727 13.8898 107.04 14.5876 106.436C14.7916 106.256 15.1344 106.211 15.4241 106.162C15.7015 106.117 15.9913 106.154 16.3177 106.154C16.7053 106.501 17.1787 106.877 17.0603 107.486C16.9746 107.931 16.8849 108.384 16.6849 108.822C16.3299 109.598 16.0688 110.419 15.8076 111.232C15.4975 112.208 15.2731 113.213 14.9385 114.181C14.3346 115.93 13.9878 117.752 13.2982 119.48C13.0982 119.986 13.0084 120.575 12.9024 121.13C12.8003 121.657 12.6983 122.197 12.5637 122.707C12.3148 123.647 12.1393 124.615 12.0169 125.555C11.8986 126.47 11.6333 127.344 11.4987 128.247C11.3436 129.26 11.1314 130.293 10.8254 131.27C10.5847 132.038 10.5438 132.838 10.2664 133.594C10.0583 134.15 9.94402 134.746 9.83385 135.335C9.7196 135.96 9.62166 136.585 9.4462 137.201C9.28299 137.773 9.18506 138.366 9.01776 138.942C8.89534 139.375 8.81373 139.869 8.77293 140.335C8.71988 140.935 8.73212 141.544 8.77293 142.149C8.79333 142.439 8.94431 142.716 9.08712 143.166L9.09529 143.145Z" fill="black"/>
<path d="M98.8205 14.5351C99.0571 14.674 99.253 14.8129 99.4611 14.9069C100.979 15.5973 101.762 16.8678 102.415 18.3425C103.076 19.8295 103.101 21.3533 102.999 22.8893C102.938 23.8003 102.591 24.6991 102.326 25.5856C102.117 26.276 101.787 26.9337 101.595 27.6282C101.412 28.2982 101.028 28.8864 100.873 29.5768C100.759 30.0752 100.416 30.5246 100.147 30.978C99.7345 31.6766 99.5631 32.4651 99.4326 33.2372C99.2857 34.0869 99.6855 34.8712 100.09 35.6188C100.934 37.1835 101.918 38.6827 102.505 40.3781C102.681 40.8887 102.668 41.3667 102.399 41.8488C102.02 42.5269 101.567 42.6168 100.8 42.3226C99.8447 41.955 99.355 41.1461 98.7756 40.4108C98.5961 40.182 98.5226 39.8633 98.3349 39.6387C97.8126 39.0095 97.2169 38.4826 96.3967 38.6746C95.144 39.2873 94.7155 40.4598 94.0627 41.4688C93.5404 42.2818 92.9732 43.1356 92.153 43.6503C90.6637 44.594 89.0192 44.5082 87.9093 43.0049C87.3789 42.2859 87.028 41.4648 87.0157 40.4925C86.9994 39.2342 87.0729 38.0291 87.5135 37.0241C87.6604 36.6932 87.8726 36.3746 88.1093 36.1009C89.0111 35.051 89.8924 33.9684 91.1615 33.327C91.7491 33.0288 92.3203 32.6489 92.9446 32.4937C93.9729 32.2404 94.8012 31.6358 95.6908 31.1455C96.2335 30.8432 96.5354 30.2509 96.8415 29.7157C97.8738 27.906 98.4777 25.9124 99.1877 23.9678C99.3142 23.6247 99.3795 23.2488 99.3999 22.8853C99.4326 22.2112 99.4815 21.5249 99.3836 20.8631C99.3101 20.3565 99.1673 19.8173 98.8164 19.4006C98.5267 19.0574 98.1676 18.8082 97.678 18.8001C97.5637 18.8001 97.4535 18.6693 97.3434 18.5999C96.8741 18.7633 96.4089 18.9226 95.8662 19.1105C95.5847 19.3148 95.144 19.5109 94.8828 19.8459C94.3891 20.4873 93.7811 21.0388 93.422 21.7945C92.9609 22.779 92.2428 23.5226 91.2104 23.9597C90.986 24.0536 90.7901 24.1558 90.5453 24.1517C90.1903 24.1435 89.8353 24.1517 89.4926 24.1517C88.7091 23.7268 88.2643 23.0568 88.3378 22.1949C88.399 21.4718 88.6806 20.7528 89.1784 20.2095C90.1903 19.1105 91.3451 18.1709 92.508 17.2273C93.4343 16.4797 94.385 15.7893 95.4255 15.2296C96.2906 14.768 97.2209 14.4657 98.2288 14.5392C98.441 14.5555 98.6532 14.5392 98.8164 14.5392L98.8205 14.5351Z" fill="black"/>
<path d="M129.795 41.6363C127.425 41.6036 127.58 42.0367 125.074 40.5497C124.895 40.182 124.723 39.8266 124.536 39.4344C124.646 39.177 124.76 38.9033 124.882 38.6214C125.246 38.4335 125.601 38.2497 126.041 38.025C126.539 38.025 127.139 37.9964 127.739 38.0332C128.551 38.0822 129.171 37.7268 129.75 37.2161C130.53 36.5298 131.109 35.6924 131.554 34.7609C131.742 34.3647 132.064 34.0133 132.203 33.6457C132.615 32.5345 133.243 31.4887 133.321 30.2672C133.341 29.9363 133.517 29.6136 133.509 29.2908C133.5 29.009 133.333 28.7312 133.215 28.4044C132.994 28.2736 132.733 28.1266 132.427 27.9468C131.705 28.3104 130.975 28.6862 130.232 29.0376C129.995 29.1479 129.734 29.2459 129.477 29.2623C128.947 29.2949 128.412 29.2745 128.045 29.2745C126.984 28.9845 126.776 28.1715 126.511 27.334C126.551 27.236 126.694 27.0481 126.69 26.8724C126.657 26.1003 127.07 25.5447 127.486 24.9524C128.412 23.6492 129.653 22.6524 130.738 21.5045C131.428 20.7814 132.036 19.997 132.623 19.1922C133.105 18.5386 133.321 17.8237 133.325 16.9903C133.141 16.8473 132.95 16.6921 132.68 16.4756C132.378 16.5614 131.966 16.3653 131.501 16.6349C130.718 17.0924 129.901 17.4233 129.424 18.2976C129.151 18.8001 128.543 19.0697 128.298 19.6457C128.237 19.7928 127.967 19.85 127.8 19.9562C126.372 20.8386 124.862 20.0501 124.601 18.51C124.491 17.8645 124.829 17.2068 125.303 16.6839C126.327 15.5564 127.58 14.723 128.841 13.8978C129.84 13.2442 130.877 12.66 132.023 12.3209C132.599 12.1494 133.203 12.0227 133.802 11.9982C134.259 11.9819 134.769 12.0595 135.173 12.2637C136.067 12.7213 136.822 13.3708 137.148 14.3799C137.283 14.7966 137.454 15.2133 137.369 15.679C137.303 16.0426 137.838 16.3449 137.393 16.8106C137.161 17.0557 137.458 17.5949 137.23 18.0116C137.046 18.3507 137.067 18.796 136.899 19.1514C136.675 19.6294 136.344 20.0583 136.087 20.524C135.802 21.0428 135.553 21.5821 135.231 22.2275C135.067 23.0242 135.63 23.7105 136.047 24.4172C136.455 25.1117 136.704 25.847 136.952 26.6069C137.316 27.7099 137.177 28.8333 137.12 29.9363C137.067 30.88 136.757 31.8155 136.398 32.7183C135.875 34.0378 135.243 35.3043 134.578 36.5502C133.949 37.7309 133.3 38.9115 132.395 39.9124C131.746 40.6273 130.926 41.0848 130.048 41.4566C129.959 41.4974 129.885 41.5791 129.791 41.6486L129.795 41.6363Z" fill="black"/>
<path d="M66.6828 145.997C66.5115 145.952 66.3197 145.903 66.132 145.846C65.7647 145.731 65.4342 146.034 65.018 145.878C64.6467 145.735 64.1774 145.829 63.749 145.854C62.737 145.903 61.9577 145.368 61.1865 144.833C61.011 144.71 60.9416 144.44 60.7988 144.199V143.399C61.0477 143.145 61.2966 142.896 61.5251 142.663C62.6391 142.496 63.6837 142.998 64.7691 142.859C65.6382 143.252 66.5808 143.166 67.45 143.043C69.9472 142.688 72.4445 142.97 74.9376 142.851C75.3008 142.835 75.6599 142.712 76.023 142.647C76.3862 142.582 76.8024 142.806 77.1166 142.443C77.1492 142.406 77.2512 142.439 77.3206 142.43C79.0058 142.263 84.2329 142.12 85.7631 142.226C86.1262 142.251 86.4853 142.377 86.8485 142.426C87.1831 142.471 87.5462 142.341 87.8319 142.639C87.8645 142.676 87.9706 142.651 88.04 142.639C89.513 142.475 90.9575 142.933 92.4305 142.872C92.8549 142.855 93.2181 142.692 93.622 142.631C94.0219 142.573 94.4014 142.655 94.8339 142.471C95.4052 142.226 96.1029 142.238 96.7517 142.218C97.8535 142.181 98.9593 142.267 100.057 142.193C101.183 142.116 102.264 142.5 103.382 142.422C104.631 142.336 105.872 142.095 107.132 142.21C107.789 141.908 108.528 142.149 109.164 141.957C109.83 141.76 110.466 141.85 111.111 141.777C111.837 141.695 112.38 141.985 112.837 142.537V143.305C112.253 144.363 111.148 144.408 110.225 144.747C109.556 144.992 108.809 144.976 108.083 145.004C107.047 145.045 106.018 145.278 104.974 145.196C104.219 145.621 103.358 145.515 102.619 145.368C101.04 145.061 99.4693 145.282 97.9024 145.2C97.3352 145.172 96.6905 145.029 96.2172 145.241C95.7357 145.458 95.1604 145.192 94.7727 145.621C93.5241 145.731 92.2592 146.05 91.0309 145.797C90.0149 145.588 89.0193 145.699 88.0196 145.613C87.6564 145.58 87.2973 145.47 86.9342 145.409C86.571 145.347 86.1793 145.539 85.8324 145.208C85.7182 145.102 85.4203 145.192 85.2081 145.192C83.429 145.192 81.654 145.2 79.875 145.188C79.3567 145.184 78.863 145.253 78.3611 145.396C77.8755 145.531 77.3696 145.392 76.8391 145.58C76.1495 145.825 75.3497 145.817 74.5949 145.825C72.322 145.854 70.0451 145.829 67.7723 145.842C67.4418 145.842 67.1113 145.927 66.6869 145.985L66.6828 145.997Z" fill="black"/>
<path d="M67.7644 14.7844C68.0337 15.1439 68.4703 14.8661 68.8294 14.9886C69.0212 15.1806 69.2252 15.3767 69.421 15.581C69.9433 16.1284 70.0454 17.019 70.0045 17.8401C69.9393 19.1269 69.3068 20.1891 68.8416 21.3125C68.3764 22.4318 68.0541 23.6166 67.4216 24.6705C67.2176 26.3659 66.2995 27.8693 66.1363 29.5769C65.4508 30.7697 65.4997 32.2077 64.8673 33.421C64.9203 34.3892 64.3123 35.1899 64.1817 36.1336C64.0634 36.9997 63.6635 37.8249 63.3575 38.6623C63.2555 38.9361 63.0963 39.2057 62.9046 39.4304C62.6312 39.7572 62.3088 40.0391 61.9946 40.3577H61.0806C60.799 40.0227 60.4726 39.6305 60.2359 39.3487C59.9544 37.7432 60.4604 36.3787 60.8235 35.0061C61.1622 33.7274 61.5621 32.4651 61.9048 31.1864C62.1089 30.4266 62.3333 29.6627 62.5618 28.9028C62.929 27.7018 63.2636 26.4885 63.6023 25.2792C63.8798 24.2824 64.1165 23.3102 63.9696 22.248H62.8597C61.9824 22.5871 61.2928 23.3061 60.5175 23.8984C60.0115 24.2824 59.4974 24.6665 58.8935 24.8625C58.4773 24.9974 58.0121 24.9933 57.6367 25.0423C57.3062 24.8462 57.045 24.691 56.7798 24.5316V23.2775C57.0205 22.5299 57.4816 21.9457 58.061 21.4514C58.616 20.9816 59.0118 20.3525 59.6932 19.9971C60.1706 19.7479 60.4685 19.2454 60.9541 18.9349C61.9252 18.3181 62.7903 17.5378 63.7206 16.8556C64.4225 16.3408 65.1366 15.8343 65.8874 15.4012C66.3077 15.1602 66.7851 14.9804 67.2992 14.9519C67.4543 14.9437 67.6012 14.8456 67.7644 14.7803V14.7844Z" fill="black"/>
<path d="M168.482 129.954C168.433 130.003 168.307 130.077 168.303 130.159C168.286 130.416 168.486 130.637 168.319 130.955C168.188 131.208 168.29 131.58 168.294 131.903C168.299 132.209 168.27 132.499 168.482 132.794C168.572 132.916 168.401 133.222 168.323 133.562C168.331 133.574 168.417 133.672 168.494 133.778C168.511 133.803 168.511 133.843 168.507 133.88C168.352 135.285 168.764 136.662 168.719 138.059C168.678 139.264 168.217 140.216 167.058 140.731C166.936 140.784 166.817 140.837 166.707 140.886C166.205 140.976 165.642 141.25 165.226 141.107C164.789 140.956 164.267 141.062 163.912 140.678C163.655 140.286 163.471 139.849 163.696 139.244C163.835 139.023 164.039 138.733 164.398 138.488C165.144 137.974 165.544 137.189 165.536 136.205C165.508 132.896 165.536 129.591 165.516 126.282C165.516 125.706 165.357 125.134 165.32 124.554C165.283 123.986 165.418 123.389 165.279 122.854C165.173 122.45 165.263 121.943 165.067 121.678C164.753 121.257 165.083 120.775 164.761 120.403C164.483 120.084 164.761 119.635 164.508 119.222C164.292 118.871 164.549 118.279 164.251 117.842C164.414 116.857 164.022 115.922 164.026 114.941C164.051 110.529 164.026 106.121 164.047 101.709C164.047 101.027 164.088 100.316 164.279 99.6748C164.418 99.2132 164.842 98.8333 165.071 98.5146C165.634 98.3267 166.03 98.5228 166.332 98.7556C166.568 98.9395 166.654 99.3194 166.805 99.6094C167.021 100.018 167.021 100.459 167.021 100.909C167.013 105.39 167.05 109.871 166.997 114.353C166.981 115.513 167.16 116.649 167.278 117.78C167.368 118.614 167.482 119.492 167.821 120.313C168.033 120.828 167.952 121.461 168.095 122.017C168.445 123.402 168.246 124.807 168.29 126.2C168.299 126.494 168.576 126.792 168.299 127.091C168.625 127.389 168.241 127.679 168.286 127.981C168.339 128.328 168.278 128.692 168.307 129.047C168.327 129.309 168.409 129.566 168.49 129.95L168.482 129.954Z" fill="black"/>
<path d="M111.295 72.4511C111.788 73.3049 111.58 74.1464 111.225 74.9716C110.842 75.8663 110.556 76.7732 110.478 77.7577C110.429 78.346 110.197 78.9179 110.034 79.543C109.418 80.4172 108.516 81.0586 107.54 81.561C106.826 81.9287 106.561 82.5905 106.263 83.2033C106.088 83.5628 106.361 84.0775 106.626 84.4003C106.9 84.7312 107.283 85.009 107.671 85.1969C108.524 85.6095 109.34 86.0548 110.013 86.7452C110.711 87.4601 111.05 88.3098 111.376 89.5966C111.515 90.1481 111.564 90.6751 111.56 91.2225C111.552 92.1458 110.829 94.1189 110.254 94.7236C110.079 94.9074 109.801 95.0014 109.442 95.2138H108.654C108.059 94.6541 107.785 94.0863 108.104 93.1508C108.381 92.3337 108.463 91.3941 108.373 90.4831C108.299 89.7314 107.981 89.0982 107.41 88.6529C106.949 88.2894 106.398 88.0238 105.859 87.7787C105.174 87.4642 104.566 87.0638 104.031 86.5327C102.954 85.4542 102.46 83.9305 103.052 82.3331C103.485 81.1648 104.174 80.168 105.255 79.4041C106.108 78.8035 107.035 78.1417 107.3 76.9897C107.679 76.6711 107.573 76.1686 107.691 75.7682C108.022 74.6448 108.479 73.6358 109.328 72.8187C110.103 72.0711 110.278 72.0344 111.299 72.4511H111.295Z" fill="black"/>
<path d="M22.365 61.9316C22.0875 61.76 21.7284 61.5108 21.3489 61.3024C20.8022 61.0001 20.2431 60.7142 19.68 60.4486C18.6518 59.9625 17.8928 59.2272 17.4684 58.1609C17.2685 57.6625 17.1338 57.1519 17.0808 56.6126C16.9543 55.289 17.297 54.0471 17.7336 52.8297C17.8561 52.4907 18.056 52.1639 18.2886 51.8901C18.6313 51.4857 18.9863 51.0609 19.423 50.7708C19.8228 50.5053 20.3166 50.3214 20.794 50.2438C21.4632 50.1294 22.1528 50.0967 22.8016 50.4603C23.4585 50.828 23.5524 50.9097 23.9604 51.9147C23.687 52.2946 23.3769 52.7317 23.1117 53.1035C22.4384 53.2914 21.8467 53.4058 21.304 53.6345C21.0592 53.7367 20.896 54.0635 20.7205 54.3086C20.5696 54.5251 20.4553 54.7702 20.288 55.0643C20.288 55.1624 20.2962 55.3381 20.288 55.5137C20.2513 56.1469 20.2799 56.7515 20.7981 57.2213C21.2265 57.6094 21.606 57.9812 22.2426 58.1242C23.3565 58.3734 24.3113 59.0025 24.9928 59.9421C25.462 60.5875 25.8252 61.3106 25.8334 62.1481C25.8374 62.8221 25.8334 63.5003 25.8334 64.1253C25.6212 64.5093 25.3763 64.8402 25.2458 65.2079C24.7847 66.4947 23.7278 67.2709 22.7445 68.0839C22.3935 68.378 21.8304 68.4515 21.3489 68.5414C20.9613 68.615 20.6675 68.3167 20.3288 68.1043V66.7153C20.8674 66.0331 21.4713 65.3345 22.0018 64.5788C22.2793 64.1825 22.467 63.7045 22.618 63.2388C22.6832 63.0427 22.5486 62.7813 22.5037 62.5525C22.4711 62.3891 22.4343 62.2216 22.369 61.9275L22.365 61.9316Z" fill="black"/>
<path d="M102.448 111.828C101.938 111.04 102.223 110.443 102.787 109.896C103.77 108.944 104.541 107.829 105.157 106.611C105.879 105.182 106.834 103.919 108.075 102.927C108.936 102.236 109.723 101.419 110.796 101.015H111.678C111.898 101.252 112.135 101.513 112.408 101.807C112.502 102.636 112.131 103.339 111.515 103.931C111.041 104.385 110.552 104.818 110.042 105.239C109.042 106.064 108.246 107.085 107.699 108.307C107.279 109.25 106.818 110.194 106.035 110.925C105.508 111.416 104.888 111.763 104.247 112.024C103.68 112.257 103.035 112.2 102.444 111.824L102.448 111.828Z" fill="black"/>
<path d="M47.4681 132.185C47.5498 132.258 47.6232 132.385 47.7048 132.389C48.2638 132.426 48.2638 132.941 48.4148 133.267C48.578 133.627 48.325 133.99 48.1251 134.301C47.7579 134.877 47.1335 135.163 46.546 135.355C45.8564 135.584 45.1464 135.78 44.3915 135.837C43.6733 135.89 42.9674 136.143 42.2656 136.335C41.4046 136.568 40.5395 136.777 39.7071 137.091C39.1644 136.801 38.6176 137.696 38.0749 137.091C37.4833 137.222 37.0711 136.772 36.5815 136.634C36.4142 136.299 36.255 135.976 36.0796 135.629C36.1571 135.416 36.2428 135.167 36.3775 134.779C36.5244 134.648 36.7855 134.415 37.0875 134.146C37.2588 134.08 37.4996 133.95 37.7526 133.896C38.8869 133.66 40.005 133.349 41.123 133.035C41.9514 132.802 42.845 132.814 43.6325 132.405C43.6896 132.377 43.7753 132.381 43.8406 132.397C44.4772 132.536 45.0484 132.164 45.6687 132.181C46.2726 132.193 46.8765 132.181 47.4722 132.181L47.4681 132.185Z" fill="black"/>
<path d="M117.815 59.4274C118.048 59.505 118.268 59.5744 118.554 59.6684C119.109 60.0728 119.476 60.7224 119.855 61.376C120.373 62.2584 120.724 63.2184 121.181 64.1213C121.353 64.4562 121.312 64.7749 121.41 65.0895C121.928 66.7562 121.92 66.7603 121.341 68.2555C120.933 68.5619 120.463 68.5905 119.965 68.5455C119.676 68.2555 119.378 67.9532 119.153 67.7285C118.807 66.7766 118.448 65.9269 118.19 65.0445C117.888 64.0314 117.272 63.1531 116.983 62.1399C116.872 61.76 116.717 61.3801 116.681 60.992C116.619 60.3506 116.974 59.9053 117.505 59.5867C117.619 59.5172 117.738 59.46 117.807 59.4274H117.815Z" fill="black"/>
<path d="M27.5716 45.1332C27.5185 45.5867 27.4492 46.1545 27.3839 46.6815C27.0248 46.7836 26.7718 46.8572 26.3842 46.9675C25.5477 46.8408 24.8213 46.13 24.0256 45.6439C23.2667 45.1782 22.4628 44.9453 21.6631 44.6593C21.3611 44.549 21.002 44.4959 20.7042 44.3979C19.9085 44.1364 19.0148 43.9077 18.77 42.8169C18.8598 42.6004 18.974 42.3267 19.0393 42.1755C19.582 41.5015 20.3573 41.8324 20.7694 41.526C22.1609 41.6363 23.4136 41.8937 24.6092 42.4411C25.821 43.0008 26.78 43.8055 27.5716 45.1332Z" fill="black"/>
<path d="M125.303 57.826C125.641 57.6585 125.878 57.5441 126.115 57.4257C126.657 57.536 127.09 57.7933 127.326 58.2754C127.408 58.4429 127.433 58.643 127.518 58.8351C127.698 59.2272 127.339 59.7461 127.763 60.1178C127.465 60.5222 127.93 60.9226 127.763 61.3229C127.453 62.0869 127.673 62.9121 127.526 63.6801C127.306 64.828 127.143 66.0495 125.882 66.8094H124.625C123.985 66.168 124.066 65.3509 124.217 64.5298C124.307 64.0396 124.576 63.5535 124.539 63.0796C124.45 61.8826 124.854 60.7306 124.78 59.5459C124.739 58.9168 125.09 58.402 125.298 57.826H125.303Z" fill="black"/>
<path d="M31.693 41.861H30.5505C30.2771 41.5015 29.8609 41.1339 29.7018 40.6763C29.5875 40.3536 29.5345 39.9655 29.461 39.606C29.2611 38.6337 28.9306 37.6982 28.5266 36.7995C27.9717 35.5617 27.7432 34.8713 27.7432 33.7151C27.8901 33.4619 28.041 33.2045 28.2002 32.9308H29.306C30.1955 33.4619 30.726 34.3279 31.1095 35.1654C31.5502 36.1336 32.0399 37.1099 32.2725 38.2007C32.452 39.0422 32.3908 39.8511 32.4275 40.6763C32.452 41.1992 32.048 41.526 31.693 41.8651V41.861Z" fill="black"/>
<path d="M39.05 39.5079C38.6379 40.4393 38.2176 41.2033 37.2057 41.4566C36.7323 41.2931 36.1978 41.1542 36.0713 40.4965V32.849C36.2263 32.2689 36.6344 31.9789 37.3362 31.9258C38.1931 32.318 38.6461 33.1146 38.8746 34.1726C38.9766 34.6506 39.0419 35.1081 39.0419 35.582C39.0419 36.3051 39.4785 37.0159 39.2377 37.7186C39.0255 38.3355 39.0663 38.936 39.0459 39.512L39.05 39.5079Z" fill="black"/>
<path d="M112.094 63.2185C112.119 63.243 112.135 63.2798 112.168 63.292C113.383 63.7292 114.191 64.681 115.069 65.5552C115.579 66.0659 115.905 66.7032 116.166 67.3405C116.342 67.7694 116.248 68.3087 116.272 68.7744C116.105 69.0603 115.954 69.3218 115.795 69.5955H114.673C114.089 69.3218 113.722 68.8683 113.347 68.3659C112.682 67.4753 111.886 66.6787 111.103 65.8821C110.76 65.5307 110.576 65.1059 110.368 64.6892C110.266 64.4849 110.282 64.2235 110.246 63.9988C110.527 63.7292 110.784 63.484 111.054 63.2267H112.094V63.2185Z" fill="black"/>
<path d="M115.844 91.9987C116.824 92.4235 117.085 92.828 117.342 93.6695C117.464 94.0739 117.578 94.4661 117.513 94.8624C117.436 95.324 117.354 95.7897 117.252 96.2432C117.158 96.6803 116.93 97.1133 116.656 97.4728C116.42 97.7874 116.044 97.9998 115.759 98.2368H114.604C114.453 98.0039 114.29 97.7506 114.09 97.4401C114.114 96.9785 113.984 96.378 114.208 95.9572C114.469 95.467 114.086 94.9318 114.506 94.4702C114.681 94.2782 114.489 93.7798 114.551 93.4366C114.604 93.1548 114.726 92.8443 114.922 92.6441C115.195 92.3663 115.563 92.1866 115.836 91.9987H115.844Z" fill="black"/>
<path d="M141.057 93.8493C140.91 94.1393 140.808 94.3804 140.666 94.601C140.572 94.748 140.421 94.8542 140.254 95.0217C139.519 95.0789 138.903 94.8256 138.246 94.364C137.275 93.6777 136.83 92.7504 136.455 91.6964C136.291 91.2388 136.181 90.8793 136.479 90.4545C136.565 90.336 136.52 90.1277 136.532 89.9806C137.658 89.2126 138.128 89.3147 138.858 90.4055C139.27 91.0223 139.768 91.582 140.172 92.207C140.494 92.7013 140.731 93.2488 141.053 93.8534L141.057 93.8493Z" fill="black"/>
<path d="M28.0367 70.6616C27.7837 70.4084 27.5593 70.1837 27.3349 69.959C27.2165 69.2155 27.5266 68.57 27.8368 67.9409C28.2897 67.0258 28.7793 66.1312 29.2527 65.2324C29.6158 65.0567 29.9708 64.8852 30.3707 64.6891C30.7053 64.9301 31.0562 65.1834 31.4153 65.4367C31.4684 65.9841 31.6357 66.5111 31.5336 66.9809C31.3215 67.9572 30.7747 68.811 30.1912 69.6117C29.9586 69.9304 29.5791 70.151 29.2364 70.3675C28.8977 70.584 28.5386 70.8005 28.0367 70.6657V70.6616Z" fill="black"/>
<path d="M112.008 41.0236C111.266 40.6968 110.788 40.2801 110.474 39.3895C110.343 38.6542 110.715 37.8331 111.445 37.1998C112.131 36.6034 112.943 36.4073 113.853 36.7995C114.126 37.0732 114.424 37.3714 114.689 37.637C114.779 37.9311 114.856 38.1803 114.946 38.4785C114.665 39.0341 114.783 39.8552 114.102 40.2883C113.738 40.5211 113.392 40.8071 112.996 40.946C112.649 41.0644 112.245 41.0113 112.016 41.0277L112.008 41.0236Z" fill="black"/>
<path d="M40.3232 52.0495C40.258 52.4621 40.7639 52.8747 40.515 53.2873C40.2906 53.655 40.311 54.1657 39.8622 54.4067C39.4827 54.6109 39.1236 54.852 38.6543 55.142C38.2504 55.0685 37.7566 54.9827 37.267 54.8969C36.4618 54.1235 36.0633 53.3241 36.0714 52.4989C36.4264 51.735 36.9569 51.2202 37.6669 50.8689C38.8176 50.5789 39.65 51.1181 40.3232 52.0454V52.0495Z" fill="black"/>
<path d="M127.555 92.9995C127.788 92.6768 128.029 92.3459 128.245 92.0436H129.159C129.999 92.2192 130.048 93.0036 130.248 93.596C130.46 94.2251 130.481 94.9196 130.558 95.422C130.334 95.8755 130.191 96.1696 130.036 96.4801C129.848 96.5618 129.636 96.6558 129.404 96.7579C128.384 96.5659 127.988 95.7284 127.555 94.846V92.9995Z" fill="black"/>
<path d="M144.33 37.9147C144.53 38.1149 144.779 38.3641 144.987 38.5725C145.089 38.8911 145.183 39.173 145.277 39.4671C144.938 40.2392 144.489 40.9868 143.575 40.9746C142.857 40.9664 142.163 40.6191 141.837 39.7163C141.71 39.0831 142.053 38.5316 142.575 38.025C143.122 37.494 143.702 37.5838 144.326 37.9147H144.33Z" fill="black"/>
<path d="M75.8315 40.5864C75.5091 40.3495 75.1786 40.1125 74.9746 39.9614C74.8603 39.5937 74.7909 39.3731 74.7012 39.079C74.9011 38.4948 74.995 37.7268 75.8029 37.4041H77.1658C77.4432 37.7309 77.7697 38.119 78.0431 38.4458C78.2144 39.5284 77.7819 40.1861 76.8026 40.5864H75.8315Z" fill="black"/>
<path d="M123.413 94.6173C123.613 95.0217 123.772 95.3404 123.899 95.6018C123.813 95.9736 123.74 96.2963 123.642 96.713C123.495 96.856 123.287 97.1011 123.042 97.2931C122.867 97.4279 122.638 97.4974 122.434 97.5913C121.157 97.0071 121.239 96.3494 121.594 95.2382C121.712 94.8706 122.026 94.6663 122.393 94.5274C122.761 94.3885 122.748 94.364 123.413 94.6091V94.6173Z" fill="black"/>
</g>
<defs>
<clipPath id="clip0_24_607">
<rect width="170" height="173" fill="white"/>
</clipPath>
</defs>
</svg>
